<svg width="72" height="59" viewBox="0 0 72 59" fill="none" xmlns="http://www.w3.org/2000/svg">
<path d="M21.5996 16.4133L25.2296 20.9951C28.4203 25.0223 33.9162 26.4074 38.6344 24.3735L28.1907 11.1915L21.5996 16.4133Z" fill="#224499"/>
<path d="M31.2071 15.1367L28.3347 11.3012C25.1954 7.48463 19.8959 6.23076 15.3791 8.23596L14.9519 8.42563L25.6503 21.3968L31.2071 15.1367Z" fill="#224499"/>
<path d="M49.9531 16.4133L46.3231 20.9951C43.1325 25.0223 37.6365 26.4074 32.9183 24.3735L43.3621 11.1915L49.9531 16.4133Z" fill="#224499"/>
<path d="M40.3436 15.1367L43.216 11.3012C46.3553 7.48463 51.6549 6.23076 56.1716 8.23596L56.5989 8.42563L45.9005 21.3968L40.3436 15.1367Z" fill="#224499"/>
<path d="M58.4824 24.2375L52.6837 23.4987C47.587 22.8494 42.6887 25.7008 40.7367 30.4534L57.4196 32.579L58.4824 24.2375Z" fill="#224499"/>
<path d="M52.5037 31.8659L57.2389 32.6006C62.1518 33.1353 66.8179 30.3273 68.646 25.736L68.8189 25.3018L52.1013 23.505L52.5037 31.8659Z" fill="#224499"/>
<path d="M38.209 44.053L37.6019 38.2391C37.0682 33.129 40.03 28.2966 44.8257 26.4528L46.5724 43.1796L38.209 44.053Z" fill="#224499"/>
<path d="M45.9694 38.2477L46.5966 42.9984C47.0197 47.922 44.1066 52.5233 39.4751 54.2468L39.037 54.4098L37.6197 37.6558L45.9694 38.2477Z" fill="#224499"/>
<path d="M13.5176 24.7205L19.3163 23.9817C24.413 23.3323 29.3113 26.1837 31.2633 30.9364L14.5804 33.0619L13.5176 24.7205Z" fill="#224499"/>
<path d="M19.4982 32.3478L14.763 33.0826C9.85019 33.6172 5.18405 30.8092 3.35597 26.2179L3.18307 25.7837L19.9007 23.9869L19.4982 32.3478Z" fill="#224499"/>
<path d="M33.791 44.5383L34.3981 38.7244C34.9318 33.6143 31.97 28.7819 27.1743 26.9382L25.4276 43.665L33.791 44.5383Z" fill="#224499"/>
<path d="M26.0287 38.7355L25.4015 43.4861C24.9783 48.4098 27.8914 53.0111 32.523 54.7346L32.9611 54.8976L34.3783 38.1436L26.0287 38.7355Z" fill="#224499"/>
<ellipse cx="52.3172" cy="37.6226" rx="3.17853" ry="3.17852" fill="#EBBA38"/>
<ellipse cx="35.2899" cy="11.8357" rx="3.17853" ry="3.17852" fill="#EBBA38"/>
<ellipse cx="20.6942" cy="37.6226" rx="3.17853" ry="3.17852" fill="#EBBA38"/>
</svg>
