<svg width="622" height="499" viewBox="0 0 622 499" fill="none" xmlns="http://www.w3.org/2000/svg">
<path d="M186.48 138.377L217.821 177.934C245.367 212.703 292.817 224.662 333.552 207.102V207.102L243.385 93.2933L186.48 138.377Z" fill="white"/>
<path d="M269.431 127.353L244.631 94.2381V94.2381C217.528 61.2871 171.774 50.4617 132.778 67.7739L129.09 69.4113L221.455 181.399L269.431 127.353Z" fill="white"/>
<path d="M431.269 138.377L399.928 177.935C372.382 212.703 324.932 224.662 284.197 207.102V207.102L374.364 93.2933L431.269 138.377Z" fill="white"/>
<path d="M348.318 127.353L373.118 94.2381V94.2381C400.221 61.2871 445.975 50.4617 484.971 67.7739L488.659 69.4114L396.294 181.399L348.318 127.353Z" fill="white"/>
<path d="M504.914 205.925L454.851 199.546C410.848 193.94 368.558 218.558 351.705 259.59V259.59L495.738 277.942L504.914 205.925Z" fill="white"/>
<path d="M453.297 271.785L494.179 278.129V278.129C536.594 282.745 576.88 258.501 592.662 218.862L594.155 215.113L449.822 199.6L453.297 271.785Z" fill="white"/>
<path d="M329.875 377.006L324.633 326.811C320.026 282.692 345.597 240.971 387.001 225.053V225.053L402.081 369.466L329.875 377.006Z" fill="white"/>
<path d="M396.887 326.888L402.302 367.903V367.903C405.955 410.412 380.804 450.138 340.818 465.018L337.035 466.425L324.799 321.778L396.887 326.888Z" fill="white"/>
<path d="M116.708 210.094L166.771 203.716C210.774 198.11 253.064 222.728 269.917 263.76V263.76L125.884 282.111L116.708 210.094Z" fill="white"/>
<path d="M168.326 275.944L127.444 282.288V282.288C85.029 286.904 44.7435 262.661 28.9607 223.022L27.4679 219.273L171.801 203.76L168.326 275.944Z" fill="white"/>
<path d="M291.752 381.195L296.994 331C301.601 286.881 276.03 245.161 234.626 229.242V229.242L219.546 373.655L291.752 381.195Z" fill="white"/>
<path d="M224.74 331.095L219.325 372.11V372.11C215.672 414.619 240.822 454.345 280.809 469.225L284.591 470.632L296.828 325.985L224.74 331.095Z" fill="white"/>
<circle cx="451.687" cy="321.491" r="27.4421" fill="white"/>
<circle cx="304.675" cy="98.8573" r="27.4421" fill="white"/>
<circle cx="178.661" cy="321.491" r="27.4421" fill="white"/>
</svg>
