<svg width="567" height="510" viewBox="0 0 567 510" fill="none" xmlns="http://www.w3.org/2000/svg">
<path d="M257.627 359.235C257.339 359.236 257.051 359.242 256.758 359.249C248.838 359.437 239.131 361.749 227.041 367.124V423.96C241.233 417.229 251.963 415.303 260.721 416.232C268.545 417.061 274.66 420.122 280.236 423.515V366.773C274.814 362.629 268.514 359.758 260.159 359.3C259.316 359.253 258.471 359.232 257.627 359.235H257.627ZM307.129 359.235C306.265 359.231 305.419 359.255 304.596 359.3C296.242 359.758 289.942 362.629 284.52 366.773V423.515C290.096 420.122 296.211 417.061 304.034 416.231C312.792 415.303 323.523 417.229 337.715 423.96V367.124C325.625 361.749 315.917 359.438 307.998 359.249C307.704 359.242 307.417 359.236 307.129 359.235V359.235ZM308.465 420.369C308.222 420.369 307.98 420.373 307.742 420.377C306.619 420.394 305.54 420.463 304.494 420.574C296.57 421.414 290.575 424.772 284.52 428.617V428.682C282.99 428.217 281.48 428.128 279.988 428.455C274.017 424.678 268.077 421.402 260.262 420.574C258.955 420.435 257.59 420.367 256.16 420.377C248.677 420.427 239.384 422.661 227.041 428.77V438.702C241.233 431.971 251.963 430.045 260.721 430.974C265.052 431.433 268.857 432.572 272.339 434.075C271.246 435.491 270.166 437.174 269.099 439.14H296.459C295.074 437.22 293.704 435.54 292.343 434.105C295.845 432.586 299.673 431.436 304.034 430.974C312.792 430.046 323.522 431.971 337.714 438.702V428.77C325.3 422.626 315.969 420.395 308.464 420.37L308.465 420.369Z" fill="#2D3F70"/>
<path d="M143.715 331.171C149.461 353.992 144.334 374.956 144.334 374.956C144.334 374.956 129.892 358.919 124.146 336.098C118.4 313.277 123.527 292.313 123.527 292.313C123.527 292.313 137.969 308.35 143.715 331.171Z" fill="#224499"/>
<path d="M92.2149 340.16C111.706 349.512 123.142 366.191 123.142 366.191C123.142 366.191 102.976 367.706 83.485 358.354C63.9939 349.002 52.5583 332.323 52.5583 332.323C52.5583 332.323 72.7239 330.808 92.2149 340.16Z" fill="#224499"/>
<path d="M121.652 282.666C119.7 306.119 108.062 324.294 108.062 324.294C108.062 324.294 99.5893 304.445 101.541 280.992C103.494 257.54 115.131 239.365 115.131 239.365C115.131 239.365 123.604 259.214 121.652 282.666Z" fill="#224499"/>
<path d="M79.8394 298.586C96.9604 311.785 104.679 330.477 104.679 330.477C104.679 330.477 84.639 327.767 67.518 314.567C50.3969 301.368 42.6783 282.676 42.6783 282.676C42.6783 282.676 62.7184 285.386 79.8394 298.586Z" fill="#224499"/>
<path d="M113.679 232.027C104.859 253.845 88.354 267.75 88.354 267.75C88.354 267.75 86.1494 246.282 94.9694 224.464C103.789 202.645 120.294 188.74 120.294 188.74C120.294 188.74 122.499 210.209 113.679 232.027Z" fill="#224499"/>
<path d="M63.0155 246.219C77.2409 262.498 81.175 282.334 81.175 282.334C81.175 282.334 62.0452 275.777 47.8198 259.498C33.5944 243.219 29.6603 223.383 29.6603 223.383C29.6603 223.383 48.7901 229.94 63.0155 246.219Z" fill="#224499"/>
<path d="M120.558 178.988C105.188 196.81 85.0872 204.667 85.0872 204.667C85.0872 204.667 89.9061 183.63 105.276 165.809C120.646 147.988 140.746 140.131 140.746 140.131C140.746 140.131 135.927 161.167 120.558 178.988Z" fill="#224499"/>
<path d="M73.2037 205.154C79.9783 225.684 75.8885 245.489 75.8885 245.489C75.8885 245.489 60.8148 232.008 54.0401 211.478C47.2654 190.949 51.3552 171.144 51.3552 171.144C51.3552 171.144 66.429 184.625 73.2037 205.154Z" fill="#224499"/>
<path d="M155.572 124.826C135.43 136.995 113.883 138.224 113.883 138.224C113.883 138.224 124.994 119.723 145.137 107.553C165.28 95.3843 186.827 94.1556 186.827 94.1556C186.827 94.1556 175.715 112.657 155.572 124.826Z" fill="#224499"/>
<path d="M180.877 77.194C163.836 93.4252 143.063 99.2771 143.063 99.2771C143.063 99.2771 149.918 78.8131 166.958 62.5818C183.999 46.3506 204.772 40.4987 204.772 40.4987C204.772 40.4987 197.917 60.9628 180.877 77.194Z" fill="#224499"/>
<path d="M147.86 74.6356C138.481 96.2194 121.624 109.695 121.624 109.695C121.624 109.695 119.973 88.177 129.352 66.5932C138.731 45.0093 155.588 31.5334 155.588 31.5334C155.588 31.5334 157.239 53.0518 147.86 74.6356Z" fill="#224499"/>
<path d="M114.89 111.1C110.698 134.258 97.3719 151.233 97.3719 151.233C97.3719 151.233 90.8409 130.664 95.0322 107.506C99.2234 84.3491 112.55 67.3734 112.55 67.3734C112.55 67.3734 119.081 87.9431 114.89 111.1Z" fill="#224499"/>
<path d="M87.467 149.348C89.9998 170.818 82.0325 189.405 82.0325 189.405C82.0325 189.405 69.9587 173.182 67.4259 151.713C64.8931 130.243 72.8604 111.656 72.8604 111.656C72.8604 111.656 84.9342 127.879 87.467 149.348Z" fill="#224499"/>
<path d="M182.586 370.413C196.628 388.339 200.068 409.094 200.068 409.094C200.068 409.094 180.742 400.783 166.699 382.857C152.657 364.93 149.217 344.175 149.217 344.175C149.217 344.175 168.543 352.486 182.586 370.413Z" fill="#224499"/>
<path d="M155.372 407.269C177.093 408.815 193.985 420.133 193.985 420.133C193.985 420.133 175.66 428.944 153.939 427.398C132.218 425.852 115.326 414.534 115.326 414.534C115.326 414.534 133.651 405.723 155.372 407.269Z" fill="#224499"/>
<path d="M123.881 378.22C145.154 382.073 160.6 395.125 160.6 395.125C160.6 395.125 141.557 401.93 120.285 398.077C99.0124 394.224 83.5659 381.172 83.5659 381.172C83.5659 381.172 102.609 374.367 123.881 378.22Z" fill="#224499"/>
<path d="M423.55 333.716C417.805 356.537 422.931 377.501 422.931 377.501C422.931 377.501 437.374 361.464 443.12 338.643C448.866 315.822 443.739 294.858 443.739 294.858C443.739 294.858 429.296 310.895 423.55 333.716Z" fill="#224499"/>
<path d="M475.049 342.705C455.558 352.057 444.122 368.735 444.122 368.735C444.122 368.735 464.288 370.251 483.779 360.899C503.27 351.546 514.705 334.868 514.705 334.868C514.705 334.868 494.54 333.352 475.049 342.705Z" fill="#224499"/>
<path d="M445.618 285.211C447.57 308.663 459.207 326.838 459.207 326.838C459.207 326.838 467.68 306.989 465.728 283.537C463.776 260.085 452.138 241.91 452.138 241.91C452.138 241.91 443.665 261.759 445.618 285.211Z" fill="#224499"/>
<path d="M487.426 301.13C470.305 314.33 462.587 333.022 462.587 333.022C462.587 333.022 482.627 330.312 499.748 317.112C516.869 303.912 524.587 285.221 524.587 285.221C524.587 285.221 504.547 287.93 487.426 301.13Z" fill="#224499"/>
<path d="M453.589 234.57C462.409 256.388 478.914 270.294 478.914 270.294C478.914 270.294 481.118 248.825 472.298 227.007C463.478 205.189 446.974 191.283 446.974 191.283C446.974 191.283 444.769 212.752 453.589 234.57Z" fill="#224499"/>
<path d="M504.25 248.764C490.025 265.043 486.091 284.879 486.091 284.879C486.091 284.879 505.22 278.321 519.446 262.043C533.671 245.764 537.605 225.928 537.605 225.928C537.605 225.928 518.476 232.485 504.25 248.764Z" fill="#224499"/>
<path d="M446.71 181.533C462.08 199.354 482.18 207.211 482.18 207.211C482.18 207.211 477.362 186.175 461.992 168.353C446.622 150.532 426.521 142.675 426.521 142.675C426.521 142.675 431.34 163.712 446.71 181.533Z" fill="#224499"/>
<path d="M494.064 207.699C487.289 228.229 491.379 248.034 491.379 248.034C491.379 248.034 506.453 234.553 513.227 214.023C520.002 193.493 515.912 173.689 515.912 173.689C515.912 173.689 500.839 187.17 494.064 207.699Z" fill="#224499"/>
<path d="M411.693 127.371C431.836 139.54 453.383 140.769 453.383 140.769C453.383 140.769 442.271 122.267 422.128 110.098C401.985 97.929 380.439 96.7003 380.439 96.7003C380.439 96.7003 391.55 115.202 411.693 127.371Z" fill="#224499"/>
<path d="M386.387 79.7387C403.427 95.9699 424.2 101.822 424.2 101.822C424.2 101.822 417.346 81.3577 400.305 65.1265C383.265 48.8953 362.492 43.0434 362.492 43.0434C362.492 43.0434 369.347 63.5074 386.387 79.7387Z" fill="#224499"/>
<path d="M419.405 77.1803C428.784 98.7641 445.642 112.24 445.642 112.24C445.642 112.24 447.293 90.7217 437.914 69.1378C428.535 47.554 411.678 34.0781 411.678 34.0781C411.678 34.0781 410.027 55.5965 419.405 77.1803Z" fill="#224499"/>
<path d="M452.378 113.645C456.569 136.802 469.896 153.778 469.896 153.778C469.896 153.778 476.427 133.208 472.235 110.051C468.044 86.8938 454.718 69.9181 454.718 69.9181C454.718 69.9181 448.187 90.4878 452.378 113.645Z" fill="#224499"/>
<path d="M479.801 151.893C477.268 173.363 485.235 191.949 485.235 191.949C485.235 191.949 497.309 175.727 499.842 154.257C502.374 132.787 494.407 114.201 494.407 114.201C494.407 114.201 482.333 130.423 479.801 151.893Z" fill="#224499"/>
<path d="M384.68 372.957C370.638 390.884 367.197 411.639 367.197 411.639C367.197 411.639 386.524 403.328 400.566 385.401C414.609 367.475 418.049 346.72 418.049 346.72C418.049 346.72 398.722 355.031 384.68 372.957Z" fill="#224499"/>
<path d="M411.896 409.813C390.174 411.359 373.282 422.677 373.282 422.677C373.282 422.677 391.607 431.488 413.328 429.942C435.05 428.396 451.942 417.078 451.942 417.078C451.942 417.078 433.617 408.267 411.896 409.813Z" fill="#224499"/>
<path d="M443.386 380.765C422.114 384.618 406.667 397.67 406.667 397.67C406.667 397.67 425.71 404.475 446.983 400.622C468.255 396.769 483.702 383.717 483.702 383.717C483.702 383.717 464.659 376.912 443.386 380.765Z" fill="#224499"/>
<path d="M70.0293 447.781H494.883L460.114 478.733L494.883 509.686H70.0293L102.678 478.733L70.0293 447.781Z" fill="#2D3F70"/>
<path d="M163.564 468.699C163.564 468.09 163.626 467.52 163.751 466.987C163.878 466.451 164.058 465.96 164.29 465.514C164.523 465.065 164.807 464.663 165.142 464.309C165.478 463.955 165.854 463.656 166.27 463.412C166.687 463.166 167.141 462.978 167.633 462.849C168.128 462.719 168.652 462.654 169.204 462.654C169.755 462.654 170.277 462.719 170.77 462.849C171.265 462.978 171.72 463.166 172.137 463.412C172.556 463.656 172.932 463.955 173.265 464.309C173.6 464.663 173.884 465.065 174.117 465.514C174.352 465.96 174.532 466.451 174.657 466.987C174.784 467.522 174.847 468.093 174.847 468.699C174.847 469.305 174.784 469.876 174.657 470.411C174.532 470.947 174.352 471.439 174.117 471.888C173.884 472.334 173.6 472.735 173.265 473.089C172.932 473.443 172.556 473.744 172.137 473.99C171.72 474.233 171.265 474.42 170.77 474.55C170.277 474.679 169.755 474.744 169.204 474.744C168.652 474.744 168.128 474.679 167.633 474.55C167.141 474.42 166.687 474.233 166.27 473.99C165.854 473.744 165.478 473.443 165.142 473.089C164.807 472.735 164.523 472.334 164.29 471.888C164.058 471.439 163.878 470.947 163.751 470.411C163.626 469.876 163.564 469.305 163.564 468.699ZM166.144 468.699C166.144 469.318 166.212 469.868 166.347 470.346C166.485 470.825 166.684 471.228 166.944 471.555C167.203 471.88 167.523 472.126 167.901 472.294C168.283 472.462 168.717 472.545 169.204 472.545C169.69 472.545 170.123 472.462 170.502 472.294C170.883 472.126 171.204 471.88 171.463 471.555C171.726 471.228 171.925 470.825 172.06 470.346C172.198 469.868 172.267 469.318 172.267 468.699C172.267 468.08 172.198 467.531 172.06 467.052C171.925 466.573 171.726 466.171 171.463 465.847C171.204 465.52 170.883 465.272 170.502 465.104C170.123 464.937 169.69 464.853 169.204 464.853C168.717 464.853 168.283 464.937 167.901 465.104C167.523 465.272 167.203 465.52 166.944 465.847C166.684 466.171 166.485 466.573 166.347 467.052C166.212 467.531 166.144 468.08 166.144 468.699ZM178.231 474.501H175.801V465.555H178.231V468.663C178.313 468.184 178.432 467.752 178.588 467.368C178.745 466.984 178.945 466.658 179.189 466.391C179.432 466.123 179.722 465.917 180.057 465.774C180.395 465.628 180.783 465.555 181.222 465.555H181.753V467.839H180.816C180.318 467.839 179.903 467.89 179.57 467.993C179.24 468.096 178.975 468.254 178.775 468.468C178.578 468.679 178.437 468.947 178.353 469.271C178.272 469.593 178.231 469.974 178.231 470.415V474.501ZM191.264 465.555V473.304C191.264 473.994 191.158 474.616 190.944 475.17C190.733 475.728 190.43 476.202 190.035 476.595C189.643 476.987 189.167 477.288 188.607 477.499C188.047 477.713 187.42 477.82 186.724 477.82C186.292 477.82 185.883 477.779 185.499 477.698C185.115 477.62 184.759 477.505 184.432 477.353C184.107 477.204 183.815 477.022 183.556 476.806C183.296 476.592 183.076 476.35 182.894 476.079C182.713 475.811 182.574 475.518 182.476 475.199C182.379 474.882 182.33 474.547 182.33 474.193H184.753C184.753 474.45 184.8 474.685 184.895 474.899C184.992 475.112 185.126 475.295 185.296 475.446C185.467 475.6 185.669 475.72 185.905 475.803C186.143 475.887 186.404 475.929 186.688 475.929C187.021 475.929 187.319 475.868 187.585 475.747C187.85 475.628 188.074 475.454 188.258 475.227C188.445 475.003 188.587 474.73 188.684 474.408C188.784 474.086 188.834 473.722 188.834 473.316V471.32C188.734 471.761 188.592 472.153 188.408 472.497C188.227 472.84 188.008 473.131 187.751 473.369C187.494 473.604 187.2 473.784 186.87 473.909C186.543 474.033 186.185 474.095 185.795 474.095C185.446 474.095 185.115 474.047 184.801 473.949C184.487 473.852 184.198 473.711 183.933 473.527C183.668 473.343 183.429 473.12 183.215 472.858C183.001 472.595 182.82 472.301 182.671 471.973C182.522 471.646 182.407 471.289 182.326 470.902C182.248 470.513 182.209 470.102 182.209 469.669C182.209 469.233 182.248 468.825 182.326 468.443C182.407 468.059 182.522 467.706 182.671 467.385C182.82 467.06 183.001 466.771 183.215 466.516C183.429 466.259 183.668 466.042 183.933 465.863C184.198 465.685 184.487 465.548 184.801 465.453C185.115 465.359 185.446 465.311 185.795 465.311C186.185 465.311 186.543 465.371 186.87 465.49C187.2 465.609 187.494 465.783 187.751 466.013C188.008 466.243 188.227 466.527 188.408 466.865C188.592 467.203 188.734 467.59 188.834 468.026V465.555H191.264ZM188.834 469.669C188.834 468.925 188.65 468.361 188.282 467.977C187.914 467.593 187.387 467.401 186.7 467.401C186.035 467.401 185.527 467.587 185.179 467.961C184.83 468.334 184.655 468.903 184.655 469.669C184.655 470.437 184.828 471.018 185.174 471.413C185.521 471.806 186.029 472.002 186.7 472.002C187.041 472.002 187.344 471.95 187.609 471.848C187.874 471.742 188.097 471.591 188.278 471.393C188.46 471.193 188.597 470.948 188.692 470.659C188.787 470.369 188.834 470.039 188.834 469.669ZM192.32 468.833C192.32 468.292 192.419 467.804 192.616 467.368C192.816 466.933 193.102 466.564 193.472 466.261C193.845 465.955 194.297 465.721 194.827 465.559C195.357 465.394 195.955 465.311 196.621 465.311C197.302 465.311 197.912 465.399 198.45 465.575C198.989 465.748 199.444 466.001 199.818 466.334C200.191 466.666 200.475 467.073 200.67 467.555C200.867 468.036 200.966 468.583 200.966 469.194V474.501H198.536V472.213C198.435 472.605 198.281 472.958 198.073 473.272C197.867 473.583 197.617 473.848 197.322 474.067C197.03 474.286 196.696 474.454 196.32 474.57C195.947 474.686 195.541 474.744 195.103 474.744C194.646 474.744 194.229 474.681 193.853 474.554C193.48 474.429 193.16 474.252 192.892 474.022C192.627 473.79 192.421 473.511 192.275 473.186C192.129 472.862 192.056 472.501 192.056 472.103C192.056 471.678 192.14 471.3 192.308 470.967C192.478 470.632 192.722 470.349 193.038 470.119C193.357 469.887 193.747 469.709 194.206 469.588C194.666 469.463 195.188 469.401 195.773 469.401H198.536V469.194C198.536 468.886 198.491 468.61 198.402 468.366C198.312 468.123 198.184 467.917 198.016 467.75C197.849 467.579 197.642 467.449 197.395 467.36C197.152 467.271 196.875 467.226 196.564 467.226C196.25 467.226 195.978 467.264 195.748 467.34C195.521 467.413 195.332 467.52 195.18 467.66C195.031 467.798 194.921 467.966 194.848 468.164C194.777 468.361 194.742 468.584 194.742 468.833H192.32ZM196.024 470.878C195.518 470.878 195.136 470.963 194.876 471.133C194.616 471.301 194.486 471.55 194.486 471.88C194.486 472.218 194.622 472.479 194.892 472.663C195.165 472.844 195.555 472.935 196.061 472.935C196.418 472.935 196.746 472.89 197.047 472.801C197.349 472.709 197.611 472.583 197.83 472.424C198.051 472.264 198.225 472.075 198.349 471.856C198.473 471.637 198.536 471.399 198.536 471.142V470.878H196.024ZM204.398 474.501H201.967V465.555H204.398V468.245C204.492 467.771 204.632 467.352 204.815 466.987C204.999 466.622 205.224 466.316 205.489 466.07C205.754 465.821 206.058 465.633 206.402 465.506C206.748 465.376 207.128 465.311 207.542 465.311C208.023 465.311 208.448 465.398 208.816 465.571C209.186 465.744 209.498 466 209.749 466.338C210.001 466.673 210.19 467.09 210.317 467.587C210.447 468.085 210.512 468.657 210.512 469.304V474.501H208.082V469.709C208.082 468.187 207.503 467.425 206.345 467.425C206.034 467.425 205.758 467.478 205.517 467.583C205.277 467.686 205.072 467.839 204.905 468.042C204.74 468.242 204.614 468.491 204.527 468.788C204.441 469.083 204.398 469.423 204.398 469.807V474.501ZM213.963 464.617H211.484V462.491H213.963V464.617ZM213.938 474.501H211.508V465.555H213.938V474.501ZM218.862 465.311C219.519 465.311 220.105 465.383 220.619 465.526C221.135 465.67 221.571 465.877 221.925 466.147C222.279 466.415 222.55 466.741 222.737 467.125C222.923 467.509 223.016 467.942 223.016 468.423H220.619C220.619 468.215 220.582 468.03 220.509 467.867C220.436 467.702 220.326 467.562 220.18 467.445C220.037 467.329 219.859 467.241 219.645 467.182C219.434 467.119 219.189 467.088 218.911 467.088C218.667 467.088 218.444 467.111 218.241 467.157C218.038 467.203 217.865 467.268 217.722 467.352C217.578 467.436 217.466 467.537 217.385 467.656C217.307 467.775 217.267 467.907 217.267 468.05C217.267 468.226 217.319 468.37 217.421 468.484C217.524 468.595 217.661 468.687 217.831 468.76C218.004 468.83 218.203 468.888 218.428 468.934C218.652 468.98 218.888 469.024 219.134 469.064L219.734 469.17C219.975 469.21 220.229 469.258 220.497 469.312C220.765 469.363 221.03 469.431 221.292 469.515C221.554 469.598 221.806 469.704 222.047 469.831C222.288 469.958 222.5 470.116 222.684 470.306C222.868 470.495 223.014 470.721 223.122 470.983C223.23 471.246 223.284 471.555 223.284 471.912C223.284 472.361 223.191 472.762 223.004 473.113C222.82 473.465 222.549 473.763 222.189 474.006C221.832 474.247 221.391 474.429 220.866 474.554C220.344 474.681 219.744 474.744 219.065 474.744C218.351 474.744 217.722 474.674 217.178 474.533C216.637 474.393 216.183 474.189 215.815 473.921C215.45 473.65 215.174 473.318 214.987 472.923C214.801 472.525 214.707 472.071 214.707 471.559H217.105C217.105 472.008 217.265 472.353 217.584 472.594C217.903 472.832 218.391 472.951 219.048 472.951C219.335 472.951 219.592 472.929 219.819 472.886C220.049 472.84 220.243 472.774 220.4 472.687C220.559 472.601 220.681 472.495 220.765 472.371C220.849 472.246 220.89 472.106 220.89 471.949C220.89 471.757 220.839 471.601 220.736 471.482C220.636 471.361 220.496 471.261 220.314 471.182C220.136 471.101 219.923 471.035 219.677 470.983C219.431 470.932 219.165 470.881 218.878 470.829L218.278 470.724C218.058 470.686 217.822 470.641 217.568 470.59C217.313 470.538 217.06 470.472 216.809 470.391C216.557 470.31 216.314 470.208 216.079 470.087C215.846 469.965 215.64 469.813 215.462 469.632C215.283 469.451 215.14 469.235 215.032 468.983C214.926 468.732 214.874 468.437 214.874 468.099C214.874 467.669 214.964 467.282 215.145 466.938C215.329 466.592 215.592 466.299 215.932 466.058C216.276 465.817 216.694 465.633 217.186 465.506C217.681 465.376 218.24 465.311 218.862 465.311ZM224.144 468.833C224.144 468.292 224.243 467.804 224.44 467.368C224.64 466.933 224.926 466.564 225.296 466.261C225.67 465.955 226.121 465.721 226.651 465.559C227.182 465.394 227.779 465.311 228.445 465.311C229.126 465.311 229.736 465.399 230.275 465.575C230.813 465.748 231.269 466.001 231.642 466.334C232.015 466.666 232.299 467.073 232.494 467.555C232.691 468.036 232.79 468.583 232.79 469.194V474.501H230.36V472.213C230.26 472.605 230.105 472.958 229.897 473.272C229.692 473.583 229.441 473.848 229.147 474.067C228.854 474.286 228.52 474.454 228.144 474.57C227.771 474.686 227.365 474.744 226.927 474.744C226.47 474.744 226.054 474.681 225.678 474.554C225.304 474.429 224.984 474.252 224.716 474.022C224.451 473.79 224.245 473.511 224.099 473.186C223.953 472.862 223.88 472.501 223.88 472.103C223.88 471.678 223.964 471.3 224.132 470.967C224.302 470.632 224.546 470.349 224.862 470.119C225.181 469.887 225.571 469.709 226.031 469.588C226.49 469.463 227.012 469.401 227.597 469.401H230.36V469.194C230.36 468.886 230.315 468.61 230.226 468.366C230.137 468.123 230.008 467.917 229.84 467.75C229.673 467.579 229.466 467.449 229.22 467.36C228.976 467.271 228.699 467.226 228.388 467.226C228.074 467.226 227.802 467.264 227.572 467.34C227.345 467.413 227.156 467.52 227.004 467.66C226.856 467.798 226.745 467.966 226.672 468.164C226.601 468.361 226.566 468.584 226.566 468.833H224.144ZM227.848 470.878C227.342 470.878 226.96 470.963 226.7 471.133C226.44 471.301 226.311 471.55 226.311 471.88C226.311 472.218 226.446 472.479 226.716 472.663C226.99 472.844 227.379 472.935 227.885 472.935C228.242 472.935 228.57 472.89 228.871 472.801C229.174 472.709 229.435 472.583 229.654 472.424C229.876 472.264 230.049 472.075 230.173 471.856C230.298 471.637 230.36 471.399 230.36 471.142V470.878H227.848ZM237.674 465.311C238.331 465.311 238.917 465.383 239.431 465.526C239.948 465.67 240.383 465.877 240.737 466.147C241.092 466.415 241.362 466.741 241.549 467.125C241.736 467.509 241.829 467.942 241.829 468.423H239.431C239.431 468.215 239.395 468.03 239.321 467.867C239.248 467.702 239.139 467.562 238.993 467.445C238.849 467.329 238.671 467.241 238.457 467.182C238.246 467.119 238.002 467.088 237.723 467.088C237.479 467.088 237.256 467.111 237.053 467.157C236.851 467.203 236.677 467.268 236.534 467.352C236.391 467.436 236.279 467.537 236.197 467.656C236.119 467.775 236.08 467.907 236.08 468.05C236.08 468.226 236.131 468.37 236.234 468.484C236.337 468.595 236.473 468.687 236.644 468.76C236.817 468.83 237.016 468.888 237.24 468.934C237.465 468.98 237.7 469.024 237.946 469.064L238.547 469.17C238.787 469.21 239.042 469.258 239.309 469.312C239.577 469.363 239.842 469.431 240.105 469.515C240.367 469.598 240.618 469.704 240.859 469.831C241.1 469.958 241.312 470.116 241.496 470.306C241.68 470.495 241.826 470.721 241.934 470.983C242.043 471.246 242.097 471.555 242.097 471.912C242.097 472.361 242.003 472.762 241.817 473.113C241.633 473.465 241.361 473.763 241.001 474.006C240.644 474.247 240.203 474.429 239.679 474.554C239.156 474.681 238.556 474.744 237.877 474.744C237.163 474.744 236.534 474.674 235.99 474.533C235.449 474.393 234.995 474.189 234.627 473.921C234.262 473.65 233.986 473.318 233.8 472.923C233.613 472.525 233.52 472.071 233.52 471.559H235.917C235.917 472.008 236.077 472.353 236.396 472.594C236.715 472.832 237.204 472.951 237.861 472.951C238.148 472.951 238.405 472.929 238.632 472.886C238.862 472.84 239.055 472.774 239.212 472.687C239.372 472.601 239.493 472.495 239.577 472.371C239.661 472.246 239.703 472.106 239.703 471.949C239.703 471.757 239.651 471.601 239.549 471.482C239.449 471.361 239.308 471.261 239.127 471.182C238.948 471.101 238.736 471.035 238.49 470.983C238.244 470.932 237.977 470.881 237.69 470.829L237.09 470.724C236.871 470.686 236.634 470.641 236.38 470.59C236.126 470.538 235.873 470.472 235.621 470.391C235.37 470.31 235.126 470.208 234.891 470.087C234.658 469.965 234.453 469.813 234.274 469.632C234.096 469.451 233.952 469.235 233.844 468.983C233.739 468.732 233.686 468.437 233.686 468.099C233.686 467.669 233.777 467.282 233.958 466.938C234.142 466.592 234.404 466.299 234.745 466.058C235.088 465.817 235.506 465.633 235.999 465.506C236.494 465.376 237.052 465.311 237.674 465.311ZM245.343 464.617H242.864V462.491H245.343V464.617ZM245.319 474.501H242.889V465.555H245.319V474.501ZM255 462.658C255.744 462.658 256.413 462.747 257.008 462.926C257.606 463.104 258.113 463.361 258.53 463.696C258.949 464.032 259.271 464.442 259.495 464.926C259.72 465.407 259.832 465.951 259.832 466.557H257.373C257.373 466.278 257.315 466.027 257.199 465.802C257.085 465.578 256.923 465.387 256.712 465.23C256.501 465.073 256.248 464.953 255.953 464.869C255.658 464.785 255.33 464.743 254.967 464.743C254.767 464.743 254.57 464.757 254.375 464.784C254.18 464.811 253.996 464.851 253.823 464.906C253.65 464.96 253.49 465.027 253.344 465.108C253.198 465.19 253.071 465.284 252.963 465.392C252.858 465.501 252.775 465.622 252.716 465.758C252.656 465.893 252.626 466.042 252.626 466.204C252.626 466.434 252.682 466.622 252.793 466.768C252.906 466.911 253.073 467.029 253.292 467.121C253.513 467.213 253.787 467.289 254.111 467.348C254.436 467.408 254.81 467.468 255.235 467.531L255.71 467.6C255.953 467.635 256.203 467.674 256.46 467.717C256.717 467.758 256.974 467.808 257.231 467.867C257.488 467.927 257.74 467.999 257.986 468.082C258.235 468.166 258.47 468.268 258.692 468.387C258.914 468.506 259.118 468.646 259.305 468.809C259.491 468.968 259.652 469.155 259.787 469.369C259.925 469.582 260.032 469.826 260.108 470.099C260.184 470.372 260.221 470.68 260.221 471.024C260.221 471.632 260.1 472.169 259.856 472.635C259.616 473.097 259.272 473.485 258.826 473.799C258.382 474.11 257.845 474.345 257.215 474.505C256.585 474.665 255.882 474.744 255.105 474.744C254.269 474.744 253.528 474.654 252.882 474.473C252.235 474.291 251.69 474.029 251.247 473.685C250.806 473.342 250.47 472.923 250.241 472.428C250.011 471.93 249.896 471.366 249.896 470.736H252.354C252.354 471.036 252.417 471.305 252.541 471.543C252.668 471.781 252.849 471.983 253.085 472.148C253.323 472.313 253.611 472.44 253.949 472.529C254.287 472.616 254.667 472.659 255.089 472.659C255.449 472.659 255.786 472.627 256.099 472.562C256.416 472.497 256.69 472.398 256.923 472.265C257.158 472.133 257.344 471.968 257.479 471.77C257.614 471.573 257.682 471.342 257.682 471.077C257.682 470.822 257.625 470.618 257.511 470.464C257.398 470.31 257.231 470.185 257.012 470.091C256.796 469.996 256.531 469.922 256.217 469.868C255.906 469.811 255.552 469.754 255.154 469.697L254.541 469.608C254.222 469.562 253.891 469.512 253.547 469.458C253.204 469.401 252.867 469.325 252.537 469.231C252.207 469.136 251.893 469.016 251.596 468.869C251.298 468.723 251.037 468.537 250.813 468.31C250.588 468.082 250.41 467.809 250.277 467.49C250.147 467.171 250.082 466.791 250.082 466.35C250.082 465.947 250.139 465.576 250.253 465.238C250.366 464.9 250.527 464.594 250.736 464.321C250.947 464.048 251.199 463.809 251.494 463.603C251.792 463.395 252.123 463.22 252.488 463.08C252.853 462.939 253.247 462.834 253.669 462.763C254.094 462.693 254.537 462.658 255 462.658ZM263.458 464.617H260.979V462.491H263.458V464.617ZM263.434 474.501H261.004V465.555H263.434V474.501ZM268.357 465.311C269.015 465.311 269.6 465.383 270.114 465.526C270.631 465.67 271.066 465.877 271.421 466.147C271.775 466.415 272.045 466.741 272.232 467.125C272.419 467.509 272.512 467.942 272.512 468.423H270.114C270.114 468.215 270.078 468.03 270.005 467.867C269.932 467.702 269.822 467.562 269.676 467.445C269.533 467.329 269.354 467.241 269.14 467.182C268.929 467.119 268.685 467.088 268.406 467.088C268.163 467.088 267.939 467.111 267.737 467.157C267.534 467.203 267.361 467.268 267.217 467.352C267.074 467.436 266.962 467.537 266.88 467.656C266.802 467.775 266.763 467.907 266.763 468.05C266.763 468.226 266.814 468.37 266.917 468.484C267.02 468.595 267.156 468.687 267.327 468.76C267.5 468.83 267.699 468.888 267.923 468.934C268.148 468.98 268.383 469.024 268.629 469.064L269.23 469.17C269.47 469.21 269.725 469.258 269.992 469.312C270.26 469.363 270.525 469.431 270.788 469.515C271.05 469.598 271.302 469.704 271.542 469.831C271.783 469.958 271.995 470.116 272.179 470.306C272.363 470.495 272.509 470.721 272.617 470.983C272.726 471.246 272.78 471.555 272.78 471.912C272.78 472.361 272.686 472.762 272.5 473.113C272.316 473.465 272.044 473.763 271.684 474.006C271.327 474.247 270.886 474.429 270.362 474.554C269.84 474.681 269.239 474.744 268.56 474.744C267.846 474.744 267.217 474.674 266.674 474.533C266.133 474.393 265.678 474.189 265.31 473.921C264.945 473.65 264.669 473.318 264.483 472.923C264.296 472.525 264.203 472.071 264.203 471.559H266.6C266.6 472.008 266.76 472.353 267.079 472.594C267.398 472.832 267.887 472.951 268.544 472.951C268.831 472.951 269.088 472.929 269.315 472.886C269.545 472.84 269.738 472.774 269.895 472.687C270.055 472.601 270.176 472.495 270.26 472.371C270.344 472.246 270.386 472.106 270.386 471.949C270.386 471.757 270.335 471.601 270.232 471.482C270.132 471.361 269.991 471.261 269.81 471.182C269.631 471.101 269.419 471.035 269.173 470.983C268.927 470.932 268.66 470.881 268.374 470.829L267.773 470.724C267.554 470.686 267.317 470.641 267.063 470.59C266.809 470.538 266.556 470.472 266.304 470.391C266.053 470.31 265.809 470.208 265.574 470.087C265.341 469.965 265.136 469.813 264.957 469.632C264.779 469.451 264.635 469.235 264.527 468.983C264.422 468.732 264.369 468.437 264.369 468.099C264.369 467.669 264.46 467.282 264.641 466.938C264.825 466.592 265.087 466.299 265.428 466.058C265.771 465.817 266.189 465.633 266.682 465.506C267.177 465.376 267.735 465.311 268.357 465.311ZM281.895 465.555L283.518 472.837L285.243 465.555H287.637L285.304 474.501H281.92L280.285 467.332L278.65 474.501H275.27L272.937 465.555H275.428L277.144 472.911L278.78 465.555H281.895ZM287.919 468.833C287.919 468.292 288.018 467.804 288.215 467.368C288.415 466.933 288.701 466.564 289.071 466.261C289.445 465.955 289.896 465.721 290.427 465.559C290.957 465.394 291.554 465.311 292.22 465.311C292.901 465.311 293.511 465.399 294.05 465.575C294.588 465.748 295.044 466.001 295.417 466.334C295.79 466.666 296.074 467.073 296.269 467.555C296.466 468.036 296.565 468.583 296.565 469.194V474.501H294.135V472.213C294.035 472.605 293.881 472.958 293.672 473.272C293.467 473.583 293.217 473.848 292.922 474.067C292.63 474.286 292.296 474.454 291.92 474.57C291.546 474.686 291.141 474.744 290.702 474.744C290.245 474.744 289.829 474.681 289.453 474.554C289.079 474.429 288.759 474.252 288.491 474.022C288.226 473.79 288.021 473.511 287.874 473.186C287.728 472.862 287.655 472.501 287.655 472.103C287.655 471.678 287.739 471.3 287.907 470.967C288.077 470.632 288.321 470.349 288.637 470.119C288.956 469.887 289.346 469.709 289.806 469.588C290.266 469.463 290.788 469.401 291.372 469.401H294.135V469.194C294.135 468.886 294.09 468.61 294.001 468.366C293.912 468.123 293.783 467.917 293.616 467.75C293.448 467.579 293.241 467.449 292.995 467.36C292.751 467.271 292.474 467.226 292.163 467.226C291.849 467.226 291.577 467.264 291.348 467.34C291.12 467.413 290.931 467.52 290.779 467.66C290.631 467.798 290.52 467.966 290.447 468.164C290.376 468.361 290.341 468.584 290.341 468.833H287.919ZM291.623 470.878C291.118 470.878 290.735 470.963 290.475 471.133C290.216 471.301 290.086 471.55 290.086 471.88C290.086 472.218 290.221 472.479 290.491 472.663C290.765 472.844 291.154 472.935 291.66 472.935C292.017 472.935 292.346 472.89 292.646 472.801C292.949 472.709 293.21 472.583 293.429 472.424C293.651 472.264 293.824 472.075 293.948 471.856C294.073 471.637 294.135 471.399 294.135 471.142V470.878H291.623ZM303.959 474.501H301.395V462.897H303.959V474.501ZM307.477 474.501H305.047V465.555H307.477V468.245C307.572 467.771 307.711 467.352 307.895 466.987C308.079 466.622 308.304 466.316 308.569 466.07C308.834 465.821 309.138 465.633 309.482 465.506C309.828 465.376 310.208 465.311 310.622 465.311C311.103 465.311 311.528 465.398 311.896 465.571C312.266 465.744 312.577 466 312.829 466.338C313.081 466.673 313.27 467.09 313.397 467.587C313.527 468.085 313.592 468.657 313.592 469.304V474.501H311.161V469.709C311.161 468.187 310.583 467.425 309.425 467.425C309.114 467.425 308.838 467.478 308.597 467.583C308.357 467.686 308.152 467.839 307.985 468.042C307.82 468.242 307.694 468.491 307.607 468.788C307.521 469.083 307.477 469.423 307.477 469.807V474.501ZM320.307 474.432C319.557 474.638 318.889 474.74 318.302 474.74C317.318 474.74 316.571 474.452 316.063 473.876C315.557 473.297 315.304 472.439 315.304 471.3V467.486H314.184V465.555H315.304V463.494H317.734V465.555H320.307V467.486H317.734V471.304C317.734 471.818 317.829 472.194 318.018 472.432C318.208 472.667 318.509 472.785 318.923 472.785C319.091 472.785 319.287 472.767 319.511 472.732C319.736 472.694 320.001 472.636 320.307 472.558V474.432ZM323.627 474.501H321.197V465.555H323.627V468.663C323.708 468.184 323.827 467.752 323.984 467.368C324.141 466.984 324.341 466.658 324.585 466.391C324.828 466.123 325.118 465.917 325.453 465.774C325.791 465.628 326.179 465.555 326.617 465.555H327.149V467.839H326.212C325.714 467.839 325.299 467.89 324.966 467.993C324.636 468.096 324.371 468.254 324.171 468.468C323.973 468.679 323.833 468.947 323.749 469.271C323.668 469.593 323.627 469.974 323.627 470.415V474.501ZM327.763 468.833C327.763 468.292 327.861 467.804 328.059 467.368C328.259 466.933 328.544 466.564 328.915 466.261C329.288 465.955 329.74 465.721 330.27 465.559C330.8 465.394 331.398 465.311 332.063 465.311C332.745 465.311 333.355 465.399 333.893 465.575C334.432 465.748 334.887 466.001 335.261 466.334C335.634 466.666 335.918 467.073 336.113 467.555C336.31 468.036 336.409 468.583 336.409 469.194V474.501H333.978V472.213C333.878 472.605 333.724 472.958 333.516 473.272C333.31 473.583 333.06 473.848 332.765 474.067C332.473 474.286 332.139 474.454 331.763 474.57C331.39 474.686 330.984 474.744 330.546 474.744C330.089 474.744 329.672 474.681 329.296 474.554C328.923 474.429 328.603 474.252 328.335 474.022C328.07 473.79 327.864 473.511 327.718 473.186C327.572 472.862 327.499 472.501 327.499 472.103C327.499 471.678 327.583 471.3 327.751 470.967C327.921 470.632 328.164 470.349 328.481 470.119C328.8 469.887 329.19 469.709 329.649 469.588C330.109 469.463 330.631 469.401 331.215 469.401H333.978V469.194C333.978 468.886 333.934 468.61 333.845 468.366C333.755 468.123 333.627 467.917 333.459 467.75C333.291 467.579 333.085 467.449 332.838 467.36C332.595 467.271 332.318 467.226 332.007 467.226C331.693 467.226 331.421 467.264 331.191 467.34C330.964 467.413 330.775 467.52 330.623 467.66C330.474 467.798 330.363 467.966 330.29 468.164C330.22 468.361 330.185 468.584 330.185 468.833H327.763ZM331.467 470.878C330.961 470.878 330.578 470.963 330.319 471.133C330.059 471.301 329.929 471.55 329.929 471.88C329.929 472.218 330.065 472.479 330.335 472.663C330.608 472.844 330.998 472.935 331.504 472.935C331.861 472.935 332.189 472.89 332.489 472.801C332.792 472.709 333.053 472.583 333.272 472.424C333.494 472.264 333.667 472.075 333.792 471.856C333.916 471.637 333.978 471.399 333.978 471.142V470.878H331.467ZM346.05 462.658C346.794 462.658 347.464 462.747 348.059 462.926C348.657 463.104 349.164 463.361 349.58 463.696C350 464.032 350.321 464.442 350.546 464.926C350.77 465.407 350.883 465.951 350.883 466.557H348.424C348.424 466.278 348.366 466.027 348.25 465.802C348.136 465.578 347.974 465.387 347.763 465.23C347.552 465.073 347.299 464.953 347.004 464.869C346.709 464.785 346.38 464.743 346.018 464.743C345.818 464.743 345.62 464.757 345.426 464.784C345.231 464.811 345.047 464.851 344.874 464.906C344.701 464.96 344.541 465.027 344.395 465.108C344.249 465.19 344.122 465.284 344.014 465.392C343.908 465.501 343.826 465.622 343.766 465.758C343.707 465.893 343.677 466.042 343.677 466.204C343.677 466.434 343.732 466.622 343.843 466.768C343.957 466.911 344.123 467.029 344.342 467.121C344.564 467.213 344.837 467.289 345.162 467.348C345.487 467.408 345.861 467.468 346.286 467.531L346.76 467.6C347.004 467.635 347.254 467.674 347.511 467.717C347.768 467.758 348.025 467.808 348.282 467.867C348.539 467.927 348.79 467.999 349.037 468.082C349.285 468.166 349.521 468.268 349.743 468.387C349.964 468.506 350.169 468.646 350.355 468.809C350.542 468.968 350.703 469.155 350.838 469.369C350.976 469.582 351.083 469.826 351.159 470.099C351.234 470.372 351.272 470.68 351.272 471.024C351.272 471.632 351.15 472.169 350.907 472.635C350.666 473.097 350.323 473.485 349.876 473.799C349.433 474.11 348.896 474.345 348.266 474.505C347.636 474.665 346.932 474.744 346.156 474.744C345.32 474.744 344.579 474.654 343.933 474.473C343.286 474.291 342.741 474.029 342.297 473.685C341.857 473.342 341.521 472.923 341.291 472.428C341.061 471.93 340.946 471.366 340.946 470.736H343.405C343.405 471.036 343.467 471.305 343.592 471.543C343.719 471.781 343.9 471.983 344.135 472.148C344.373 472.313 344.662 472.44 345 472.529C345.338 472.616 345.718 472.659 346.14 472.659C346.499 472.659 346.836 472.627 347.15 472.562C347.466 472.497 347.741 472.398 347.974 472.265C348.209 472.133 348.394 471.968 348.529 471.77C348.665 471.573 348.732 471.342 348.732 471.077C348.732 470.822 348.676 470.618 348.562 470.464C348.448 470.31 348.282 470.185 348.063 470.091C347.846 469.996 347.581 469.922 347.268 469.868C346.957 469.811 346.602 469.754 346.205 469.697L345.592 469.608C345.273 469.562 344.941 469.512 344.598 469.458C344.254 469.401 343.918 469.325 343.588 469.231C343.258 469.136 342.944 469.016 342.646 468.869C342.349 468.723 342.088 468.537 341.863 468.31C341.639 468.082 341.46 467.809 341.328 467.49C341.198 467.171 341.133 466.791 341.133 466.35C341.133 465.947 341.19 465.576 341.303 465.238C341.417 464.9 341.578 464.594 341.786 464.321C341.997 464.048 342.25 463.809 342.545 463.603C342.843 463.395 343.174 463.22 343.539 463.08C343.904 462.939 344.298 462.834 344.72 462.763C345.144 462.693 345.588 462.658 346.05 462.658ZM360.759 471.47C360.638 471.979 360.447 472.436 360.187 472.842C359.93 473.245 359.617 473.588 359.246 473.872C358.875 474.153 358.455 474.368 357.984 474.517C357.516 474.669 357.01 474.744 356.467 474.744C356.018 474.744 355.593 474.693 355.193 474.59C354.795 474.487 354.429 474.34 354.093 474.148C353.761 473.953 353.46 473.717 353.193 473.438C352.927 473.159 352.703 472.846 352.519 472.497C352.335 472.145 352.193 471.762 352.093 471.348C351.996 470.932 351.947 470.488 351.947 470.018C351.947 469.55 351.996 469.109 352.093 468.695C352.19 468.278 352.33 467.896 352.511 467.547C352.695 467.198 352.918 466.885 353.18 466.61C353.443 466.334 353.739 466.1 354.069 465.908C354.402 465.716 354.765 465.568 355.16 465.465C355.555 465.363 355.974 465.311 356.418 465.311C357.078 465.311 357.677 465.424 358.215 465.648C358.756 465.87 359.218 466.186 359.599 466.597C359.983 467.006 360.279 467.499 360.487 468.078C360.696 468.654 360.8 469.297 360.8 470.006C360.8 470.114 360.797 470.223 360.792 470.334C360.789 470.442 360.781 470.553 360.767 470.667H354.296C354.334 471.002 354.412 471.302 354.531 471.568C354.653 471.83 354.809 472.053 354.998 472.237C355.19 472.418 355.415 472.558 355.672 472.655C355.931 472.752 356.219 472.801 356.536 472.801C357.012 472.801 357.409 472.69 357.729 472.468C358.05 472.244 358.301 471.911 358.479 471.47H360.759ZM358.467 469.166C358.364 468.522 358.142 468.038 357.802 467.713C357.461 467.386 357.004 467.222 356.43 467.222C356.141 467.222 355.877 467.266 355.639 467.352C355.401 467.439 355.193 467.564 355.014 467.729C354.836 467.894 354.687 468.099 354.568 468.342C354.452 468.583 354.369 468.857 354.32 469.166H358.467ZM366.109 470.066L370.617 474.501H367.517L364.089 471.056V474.501H361.659V462.491H364.089V469.324L367.404 465.555H370.272L366.109 470.066ZM369.713 470.026C369.713 469.55 369.763 469.103 369.863 468.687C369.964 468.268 370.107 467.884 370.294 467.535C370.483 467.186 370.711 466.875 370.979 466.601C371.247 466.326 371.549 466.093 371.884 465.904C372.219 465.712 372.586 465.566 372.983 465.465C373.381 465.363 373.803 465.311 374.249 465.311C374.696 465.311 375.118 465.363 375.515 465.465C375.913 465.566 376.279 465.712 376.615 465.904C376.95 466.093 377.252 466.326 377.52 466.601C377.787 466.875 378.014 467.186 378.201 467.535C378.39 467.884 378.535 468.268 378.635 468.687C378.735 469.103 378.785 469.55 378.785 470.026C378.785 470.74 378.674 471.388 378.453 471.969C378.231 472.548 377.92 473.043 377.52 473.454C377.119 473.865 376.64 474.183 376.083 474.408C375.529 474.632 374.917 474.744 374.249 474.744C373.581 474.744 372.969 474.632 372.411 474.408C371.857 474.183 371.38 473.865 370.979 473.454C370.579 473.043 370.268 472.548 370.046 471.969C369.824 471.388 369.713 470.74 369.713 470.026ZM372.16 470.026C372.16 470.44 372.207 470.809 372.302 471.133C372.397 471.455 372.533 471.727 372.712 471.949C372.89 472.168 373.109 472.336 373.369 472.452C373.629 472.568 373.922 472.627 374.249 472.627C374.579 472.627 374.873 472.568 375.13 472.452C375.389 472.336 375.609 472.168 375.787 471.949C375.966 471.727 376.102 471.455 376.197 471.133C376.292 470.809 376.339 470.44 376.339 470.026C376.339 469.612 376.292 469.244 376.197 468.922C376.102 468.6 375.966 468.329 375.787 468.107C375.609 467.885 375.389 467.717 375.13 467.604C374.873 467.487 374.579 467.429 374.249 467.429C373.922 467.429 373.629 467.487 373.369 467.604C373.109 467.717 372.89 467.885 372.712 468.107C372.533 468.329 372.397 468.6 372.302 468.922C372.207 469.244 372.16 469.612 372.16 470.026ZM382.061 474.501H379.631V462.491H382.061V474.501ZM383.122 468.833C383.122 468.292 383.221 467.804 383.418 467.368C383.619 466.933 383.904 466.564 384.274 466.261C384.648 465.955 385.099 465.721 385.63 465.559C386.16 465.394 386.758 465.311 387.423 465.311C388.105 465.311 388.714 465.399 389.253 465.575C389.791 465.748 390.247 466.001 390.62 466.334C390.993 466.666 391.277 467.073 391.472 467.555C391.67 468.036 391.768 468.583 391.768 469.194V474.501H389.338V472.213C389.238 472.605 389.084 472.958 388.875 473.272C388.67 473.583 388.42 473.848 388.125 474.067C387.833 474.286 387.499 474.454 387.123 474.57C386.749 474.686 386.344 474.744 385.905 474.744C385.448 474.744 385.032 474.681 384.656 474.554C384.283 474.429 383.962 474.252 383.694 474.022C383.429 473.79 383.224 473.511 383.078 473.186C382.932 472.862 382.858 472.501 382.858 472.103C382.858 471.678 382.942 471.3 383.11 470.967C383.28 470.632 383.524 470.349 383.84 470.119C384.16 469.887 384.549 469.709 385.009 469.588C385.469 469.463 385.991 469.401 386.575 469.401H389.338V469.194C389.338 468.886 389.293 468.61 389.204 468.366C389.115 468.123 388.986 467.917 388.819 467.75C388.651 467.579 388.444 467.449 388.198 467.36C387.954 467.271 387.677 467.226 387.366 467.226C387.052 467.226 386.781 467.264 386.551 467.34C386.323 467.413 386.134 467.52 385.983 467.66C385.834 467.798 385.723 467.966 385.65 468.164C385.58 468.361 385.544 468.584 385.544 468.833H383.122ZM386.826 470.878C386.321 470.878 385.938 470.963 385.678 471.133C385.419 471.301 385.289 471.55 385.289 471.88C385.289 472.218 385.424 472.479 385.695 472.663C385.968 472.844 386.357 472.935 386.863 472.935C387.22 472.935 387.549 472.89 387.849 472.801C388.152 472.709 388.413 472.583 388.632 472.424C388.854 472.264 389.027 472.075 389.151 471.856C389.276 471.637 389.338 471.399 389.338 471.142V470.878H386.826ZM395.2 474.501H392.77V462.491H395.2V468.241C395.295 467.767 395.434 467.349 395.618 466.987C395.802 466.622 396.026 466.316 396.291 466.07C396.556 465.821 396.861 465.633 397.204 465.506C397.55 465.376 397.93 465.311 398.344 465.311C398.826 465.311 399.25 465.398 399.618 465.571C399.989 465.744 400.3 466 400.551 466.338C400.803 466.673 400.992 467.09 401.119 467.587C401.249 468.085 401.314 468.657 401.314 469.304V474.501H398.884V469.709C398.884 468.947 398.741 468.376 398.454 467.997C398.167 467.616 397.732 467.425 397.147 467.425C396.836 467.425 396.56 467.478 396.32 467.583C396.079 467.686 395.875 467.839 395.707 468.042C395.542 468.242 395.416 468.491 395.33 468.788C395.243 469.083 395.2 469.423 395.2 469.807V474.501ZM144.194 483.658C144.937 483.658 145.607 483.747 146.202 483.926C146.8 484.104 147.307 484.361 147.723 484.696C148.143 485.032 148.465 485.442 148.689 485.926C148.914 486.407 149.026 486.951 149.026 487.557H146.567C146.567 487.278 146.509 487.027 146.393 486.802C146.279 486.578 146.117 486.387 145.906 486.23C145.695 486.073 145.442 485.953 145.147 485.869C144.852 485.785 144.524 485.743 144.161 485.743C143.961 485.743 143.764 485.757 143.569 485.784C143.374 485.811 143.19 485.851 143.017 485.906C142.844 485.96 142.684 486.027 142.538 486.108C142.392 486.19 142.265 486.284 142.157 486.392C142.051 486.501 141.969 486.622 141.909 486.758C141.85 486.893 141.82 487.042 141.82 487.204C141.82 487.434 141.876 487.622 141.987 487.768C142.1 487.911 142.266 488.029 142.486 488.121C142.707 488.213 142.981 488.289 143.305 488.348C143.63 488.408 144.004 488.468 144.429 488.531L144.904 488.6C145.147 488.635 145.397 488.674 145.654 488.717C145.911 488.758 146.168 488.808 146.425 488.867C146.682 488.927 146.934 488.999 147.18 489.082C147.429 489.166 147.664 489.268 147.886 489.387C148.108 489.506 148.312 489.646 148.498 489.809C148.685 489.968 148.846 490.155 148.981 490.369C149.119 490.582 149.226 490.826 149.302 491.099C149.377 491.372 149.415 491.68 149.415 492.024C149.415 492.632 149.294 493.169 149.05 493.635C148.809 494.097 148.466 494.485 148.02 494.799C147.576 495.11 147.039 495.345 146.409 495.505C145.779 495.665 145.075 495.744 144.299 495.744C143.463 495.744 142.722 495.654 142.076 495.473C141.429 495.291 140.884 495.029 140.441 494.685C140 494.342 139.664 493.923 139.434 493.428C139.205 492.93 139.09 492.366 139.09 491.736H141.548C141.548 492.036 141.611 492.305 141.735 492.543C141.862 492.781 142.043 492.983 142.279 493.148C142.517 493.313 142.805 493.44 143.143 493.529C143.481 493.616 143.861 493.659 144.283 493.659C144.643 493.659 144.979 493.627 145.293 493.562C145.61 493.497 145.884 493.398 146.117 493.265C146.352 493.133 146.537 492.968 146.673 492.77C146.808 492.573 146.876 492.342 146.876 492.077C146.876 491.822 146.819 491.618 146.705 491.464C146.592 491.31 146.425 491.185 146.206 491.091C145.99 490.996 145.725 490.922 145.411 490.868C145.1 490.811 144.745 490.754 144.348 490.697L143.735 490.608C143.416 490.562 143.085 490.512 142.741 490.458C142.398 490.401 142.061 490.325 141.731 490.231C141.401 490.136 141.087 490.016 140.79 489.869C140.492 489.723 140.231 489.537 140.007 489.31C139.782 489.082 139.604 488.809 139.471 488.49C139.341 488.171 139.276 487.791 139.276 487.35C139.276 486.947 139.333 486.576 139.447 486.238C139.56 485.9 139.721 485.594 139.929 485.321C140.14 485.048 140.393 484.809 140.688 484.603C140.986 484.395 141.317 484.22 141.682 484.08C142.047 483.939 142.441 483.834 142.863 483.763C143.288 483.693 143.731 483.658 144.194 483.658ZM164.041 483.897V495.501H161.477V486.052L158.47 495.501H155.671L152.697 486.048V495.501H150.238V483.897H154.352L157.184 492.884L160.045 483.897H164.041ZM169.842 489.744L175.587 495.501H172.199L167.732 490.969V495.501H165.168V483.897H167.732V488.855L172.053 483.897H175.205L169.842 489.744ZM182.503 495.501H179.939V483.897H182.503V495.501ZM183.631 483.897H187.863C188.447 483.897 188.996 483.959 189.51 484.084C190.027 484.206 190.503 484.384 190.938 484.619C191.374 484.855 191.763 485.141 192.107 485.48C192.453 485.818 192.747 486.202 192.987 486.632C193.228 487.062 193.412 487.534 193.539 488.048C193.669 488.562 193.734 489.112 193.734 489.699C193.734 490.286 193.669 490.836 193.539 491.35C193.412 491.864 193.228 492.336 192.987 492.766C192.747 493.196 192.453 493.581 192.107 493.919C191.763 494.257 191.374 494.543 190.938 494.779C190.503 495.014 190.027 495.194 189.51 495.318C188.994 495.44 188.445 495.501 187.863 495.501H183.631V483.897ZM187.806 493.302C188.336 493.302 188.808 493.223 189.222 493.067C189.639 492.907 189.989 492.674 190.273 492.369C190.56 492.063 190.777 491.687 190.926 491.241C191.078 490.792 191.153 490.278 191.153 489.699C191.153 489.12 191.078 488.608 190.926 488.161C190.777 487.712 190.56 487.335 190.273 487.029C189.989 486.724 189.639 486.492 189.222 486.336C188.808 486.176 188.336 486.096 187.806 486.096H186.171V493.302H187.806ZM205.351 495.501H201.712L197.184 486.19V495.501H194.725V483.897H198.604L202.893 492.657V483.897H205.351V495.501ZM216.063 483.897C216.661 483.897 217.203 483.966 217.69 484.104C218.177 484.239 218.592 484.434 218.936 484.688C219.282 484.943 219.548 485.251 219.735 485.613C219.921 485.976 220.015 486.384 220.015 486.839C220.015 487.201 219.955 487.537 219.836 487.845C219.717 488.151 219.551 488.42 219.337 488.652C219.126 488.882 218.875 489.07 218.583 489.216C218.29 489.362 217.971 489.456 217.625 489.496C218.044 489.534 218.43 489.631 218.781 489.788C219.133 489.945 219.436 490.149 219.69 490.401C219.947 490.653 220.147 490.946 220.291 491.281C220.434 491.614 220.506 491.979 220.506 492.377C220.506 492.856 220.4 493.287 220.189 493.671C219.981 494.055 219.688 494.384 219.309 494.657C218.93 494.928 218.477 495.136 217.95 495.282C217.422 495.428 216.841 495.501 216.205 495.501H210.257V483.897H216.063ZM215.799 488.721C216.051 488.721 216.279 488.689 216.485 488.624C216.693 488.559 216.87 488.464 217.016 488.34C217.163 488.215 217.275 488.065 217.353 487.89C217.434 487.711 217.475 487.511 217.475 487.289C217.475 487.073 217.436 486.882 217.357 486.717C217.282 486.549 217.172 486.409 217.029 486.295C216.885 486.181 216.709 486.096 216.501 486.039C216.293 485.98 216.058 485.95 215.795 485.95H212.821V488.721H215.799ZM216.022 493.448C216.663 493.448 217.144 493.333 217.463 493.103C217.782 492.871 217.942 492.509 217.942 492.02C217.942 491.533 217.782 491.175 217.463 490.945C217.144 490.712 216.665 490.596 216.027 490.596H212.821V493.448H216.022ZM220.992 489.699C220.992 489.09 221.054 488.52 221.178 487.987C221.305 487.451 221.485 486.96 221.718 486.514C221.951 486.065 222.235 485.663 222.57 485.309C222.905 484.955 223.281 484.656 223.698 484.412C224.114 484.166 224.569 483.978 225.061 483.849C225.556 483.719 226.08 483.654 226.631 483.654C227.183 483.654 227.705 483.719 228.197 483.849C228.692 483.978 229.148 484.166 229.565 484.412C229.984 484.656 230.36 484.955 230.693 485.309C231.028 485.663 231.312 486.065 231.545 486.514C231.78 486.96 231.96 487.451 232.084 487.987C232.211 488.522 232.275 489.093 232.275 489.699C232.275 490.305 232.211 490.876 232.084 491.411C231.96 491.947 231.78 492.439 231.545 492.888C231.312 493.334 231.028 493.735 230.693 494.089C230.36 494.443 229.984 494.744 229.565 494.99C229.148 495.233 228.692 495.42 228.197 495.55C227.705 495.679 227.183 495.744 226.631 495.744C226.08 495.744 225.556 495.679 225.061 495.55C224.569 495.42 224.114 495.233 223.698 494.99C223.281 494.744 222.905 494.443 222.57 494.089C222.235 493.735 221.951 493.334 221.718 492.888C221.485 492.439 221.305 491.947 221.178 491.411C221.054 490.876 220.992 490.305 220.992 489.699ZM223.572 489.699C223.572 490.318 223.64 490.868 223.775 491.346C223.913 491.825 224.112 492.228 224.371 492.555C224.631 492.88 224.95 493.126 225.329 493.294C225.71 493.462 226.144 493.545 226.631 493.545C227.118 493.545 227.551 493.462 227.93 493.294C228.311 493.126 228.632 492.88 228.891 492.555C229.154 492.228 229.352 491.825 229.488 491.346C229.626 490.868 229.695 490.318 229.695 489.699C229.695 489.08 229.626 488.531 229.488 488.052C229.352 487.573 229.154 487.171 228.891 486.847C228.632 486.52 228.311 486.272 227.93 486.104C227.551 485.937 227.118 485.853 226.631 485.853C226.144 485.853 225.71 485.937 225.329 486.104C224.95 486.272 224.631 486.52 224.371 486.847C224.112 487.171 223.913 487.573 223.775 488.052C223.64 488.531 223.572 489.08 223.572 489.699ZM231.945 495.501L235.946 483.897H239.54L243.484 495.501H240.753L239.974 492.949H235.41L234.623 495.501H231.945ZM239.337 490.855L237.71 485.508L236.059 490.855H239.337ZM244.062 495.501V483.893H249.803C250.455 483.893 251.039 483.976 251.556 484.141C252.075 484.306 252.515 484.541 252.875 484.847C253.237 485.15 253.514 485.517 253.706 485.95C253.898 486.383 253.995 486.867 253.995 487.403C253.995 487.871 253.919 488.297 253.767 488.681C253.616 489.062 253.399 489.391 253.118 489.667C252.84 489.94 252.501 490.155 252.104 490.312C251.709 490.466 251.267 490.551 250.777 490.567C251.24 490.6 251.647 490.77 251.998 491.079C252.353 491.384 252.657 491.822 252.911 492.393L254.307 495.501H251.463L250.055 492.401C249.952 492.171 249.848 491.982 249.743 491.833C249.637 491.682 249.518 491.561 249.385 491.472C249.253 491.383 249.1 491.321 248.927 491.285C248.757 491.25 248.551 491.233 248.31 491.233H246.627V495.501H244.062ZM249.507 489.164C249.81 489.164 250.081 489.128 250.319 489.058C250.557 488.985 250.758 488.881 250.923 488.746C251.088 488.608 251.214 488.44 251.3 488.243C251.387 488.042 251.43 487.815 251.43 487.561C251.43 487.061 251.264 486.678 250.931 486.413C250.599 486.145 250.123 486.011 249.503 486.011H246.627V489.164H249.507ZM255.188 483.897H259.42C260.004 483.897 260.553 483.959 261.067 484.084C261.584 484.206 262.06 484.384 262.495 484.619C262.931 484.855 263.32 485.141 263.664 485.48C264.01 485.818 264.303 486.202 264.544 486.632C264.785 487.062 264.969 487.534 265.096 488.048C265.226 488.562 265.291 489.112 265.291 489.699C265.291 490.286 265.226 490.836 265.096 491.35C264.969 491.864 264.785 492.336 264.544 492.766C264.303 493.196 264.01 493.581 263.664 493.919C263.32 494.257 262.931 494.543 262.495 494.779C262.06 495.014 261.584 495.194 261.067 495.318C260.55 495.44 260.001 495.501 259.42 495.501H255.188V483.897ZM259.363 493.302C259.893 493.302 260.365 493.223 260.779 493.067C261.196 492.907 261.546 492.674 261.83 492.369C262.117 492.063 262.334 491.687 262.483 491.241C262.635 490.792 262.71 490.278 262.71 489.699C262.71 489.12 262.635 488.608 262.483 488.161C262.334 487.712 262.117 487.335 261.83 487.029C261.546 486.724 261.196 486.492 260.779 486.336C260.365 486.176 259.893 486.096 259.363 486.096H257.728V493.302H259.363ZM268.846 495.501H266.282V483.897H268.846V495.501ZM280.601 495.501H276.962L272.434 486.19V495.501H269.975V483.897H273.854L278.142 492.657V483.897H280.601V495.501ZM284.178 489.699C284.178 490.324 284.244 490.878 284.376 491.363C284.509 491.847 284.702 492.254 284.957 492.584C285.213 492.914 285.529 493.164 285.902 493.334C286.275 493.505 286.704 493.59 287.188 493.59C287.618 493.59 288.017 493.529 288.385 493.407C288.755 493.283 289.077 493.109 289.351 492.884C289.626 492.66 289.847 492.39 290.012 492.077C290.177 491.763 290.272 491.414 290.296 491.03H287.062V489.293H292.734V495.501H290.332V492.616C290.178 493.095 289.971 493.528 289.712 493.915C289.455 494.301 289.153 494.63 288.807 494.901C288.463 495.171 288.081 495.379 287.659 495.525C287.239 495.671 286.789 495.744 286.308 495.744C285.853 495.744 285.42 495.678 285.009 495.546C284.601 495.413 284.222 495.224 283.873 494.978C283.524 494.729 283.209 494.426 282.928 494.069C282.649 493.712 282.411 493.31 282.214 492.864C282.016 492.415 281.864 491.925 281.755 491.395C281.65 490.862 281.597 490.297 281.597 489.699C281.597 489.09 281.659 488.52 281.784 487.987C281.911 487.451 282.091 486.96 282.323 486.514C282.556 486.065 282.839 485.663 283.171 485.309C283.507 484.955 283.883 484.656 284.299 484.412C284.718 484.166 285.174 483.978 285.667 483.849C286.159 483.719 286.681 483.654 287.233 483.654C287.69 483.654 288.128 483.7 288.547 483.792C288.969 483.884 289.365 484.018 289.736 484.193C290.109 484.369 290.453 484.586 290.767 484.843C291.083 485.097 291.364 485.388 291.61 485.715C291.859 486.042 292.069 486.405 292.239 486.802C292.41 487.197 292.535 487.622 292.617 488.076H290.069C289.985 487.711 289.856 487.391 289.683 487.115C289.513 486.836 289.306 486.603 289.062 486.417C288.819 486.23 288.543 486.089 288.235 485.995C287.929 485.9 287.596 485.853 287.237 485.853C286.75 485.853 286.316 485.937 285.934 486.104C285.556 486.272 285.236 486.52 284.977 486.847C284.717 487.171 284.518 487.573 284.38 488.052C284.245 488.531 284.178 489.08 284.178 489.699ZM302.459 483.658C303.203 483.658 303.872 483.747 304.467 483.926C305.065 484.104 305.572 484.361 305.988 484.696C306.408 485.032 306.73 485.442 306.954 485.926C307.179 486.407 307.291 486.951 307.291 487.557H304.832C304.832 487.278 304.774 487.027 304.658 486.802C304.544 486.578 304.382 486.387 304.171 486.23C303.96 486.073 303.707 485.953 303.412 485.869C303.117 485.785 302.789 485.743 302.426 485.743C302.226 485.743 302.029 485.757 301.834 485.784C301.639 485.811 301.455 485.851 301.282 485.906C301.109 485.96 300.949 486.027 300.803 486.108C300.657 486.19 300.53 486.284 300.422 486.392C300.316 486.501 300.234 486.622 300.174 486.758C300.115 486.893 300.085 487.042 300.085 487.204C300.085 487.434 300.141 487.622 300.252 487.768C300.365 487.911 300.531 488.029 300.751 488.121C300.972 488.213 301.246 488.289 301.57 488.348C301.895 488.408 302.269 488.468 302.694 488.531L303.169 488.6C303.412 488.635 303.662 488.674 303.919 488.717C304.176 488.758 304.433 488.808 304.69 488.867C304.947 488.927 305.199 488.999 305.445 489.082C305.694 489.166 305.929 489.268 306.151 489.387C306.373 489.506 306.577 489.646 306.763 489.809C306.95 489.968 307.111 490.155 307.246 490.369C307.384 490.582 307.491 490.826 307.567 491.099C307.643 491.372 307.68 491.68 307.68 492.024C307.68 492.632 307.559 493.169 307.315 493.635C307.074 494.097 306.731 494.485 306.285 494.799C305.841 495.11 305.304 495.345 304.674 495.505C304.044 495.665 303.34 495.744 302.564 495.744C301.728 495.744 300.987 495.654 300.341 495.473C299.694 495.291 299.149 495.029 298.706 494.685C298.265 494.342 297.929 493.923 297.7 493.428C297.47 492.93 297.355 492.366 297.355 491.736H299.813C299.813 492.036 299.876 492.305 300 492.543C300.127 492.781 300.308 492.983 300.544 493.148C300.782 493.313 301.07 493.44 301.408 493.529C301.746 493.616 302.126 493.659 302.548 493.659C302.908 493.659 303.244 493.627 303.558 493.562C303.875 493.497 304.149 493.398 304.382 493.265C304.617 493.133 304.802 492.968 304.938 492.77C305.073 492.573 305.141 492.342 305.141 492.077C305.141 491.822 305.084 491.618 304.97 491.464C304.857 491.31 304.69 491.185 304.471 491.091C304.255 490.996 303.99 490.922 303.676 490.868C303.365 490.811 303.01 490.754 302.613 490.697L302 490.608C301.681 490.562 301.35 490.512 301.006 490.458C300.663 490.401 300.326 490.325 299.996 490.231C299.666 490.136 299.352 490.016 299.055 489.869C298.757 489.723 298.496 489.537 298.272 489.31C298.047 489.082 297.869 488.809 297.736 488.49C297.606 488.171 297.541 487.791 297.541 487.35C297.541 486.947 297.598 486.576 297.712 486.238C297.825 485.9 297.986 485.594 298.194 485.321C298.405 485.048 298.658 484.809 298.953 484.603C299.251 484.395 299.582 484.22 299.947 484.08C300.312 483.939 300.706 483.834 301.128 483.763C301.553 483.693 301.996 483.658 302.459 483.658ZM310.898 489.699C310.898 490.318 310.966 490.868 311.101 491.346C311.239 491.825 311.438 492.228 311.698 492.555C311.957 492.88 312.277 493.126 312.655 493.294C313.037 493.462 313.471 493.545 313.958 493.545C314.739 493.545 315.365 493.32 315.836 492.868C316.307 492.416 316.619 491.739 316.773 490.835H319.321C319.248 491.344 319.132 491.818 318.972 492.259C318.815 492.7 318.618 493.103 318.38 493.468C318.145 493.831 317.873 494.154 317.564 494.438C317.256 494.719 316.915 494.957 316.542 495.152C316.169 495.344 315.764 495.49 315.329 495.59C314.896 495.693 314.438 495.744 313.954 495.744C313.402 495.744 312.88 495.679 312.387 495.55C311.895 495.42 311.439 495.233 311.02 494.99C310.604 494.744 310.228 494.443 309.892 494.089C309.56 493.735 309.277 493.334 309.044 492.888C308.812 492.439 308.632 491.947 308.505 491.411C308.38 490.876 308.318 490.305 308.318 489.699C308.318 489.09 308.38 488.52 308.505 487.987C308.632 487.451 308.812 486.96 309.044 486.514C309.277 486.065 309.56 485.663 309.892 485.309C310.228 484.955 310.604 484.656 311.02 484.412C311.439 484.166 311.895 483.978 312.387 483.849C312.88 483.719 313.402 483.654 313.954 483.654C314.438 483.654 314.896 483.705 315.329 483.808C315.764 483.908 316.169 484.055 316.542 484.25C316.915 484.442 317.256 484.68 317.564 484.964C317.873 485.246 318.145 485.569 318.38 485.934C318.618 486.296 318.815 486.698 318.972 487.139C319.132 487.58 319.248 488.055 319.321 488.563H316.773C316.619 487.662 316.305 486.986 315.832 486.534C315.359 486.08 314.734 485.853 313.958 485.853C313.471 485.853 313.037 485.937 312.655 486.104C312.277 486.272 311.957 486.52 311.698 486.847C311.438 487.171 311.239 487.573 311.101 488.052C310.966 488.531 310.898 489.08 310.898 489.699ZM330.355 495.501H327.79V490.811H322.938V495.501H320.374V483.897H322.938V488.612H327.79V483.897H330.355V495.501ZM331.346 489.699C331.346 489.09 331.408 488.52 331.533 487.987C331.66 487.451 331.84 486.96 332.072 486.514C332.305 486.065 332.589 485.663 332.924 485.309C333.26 484.955 333.636 484.656 334.052 484.412C334.469 484.166 334.923 483.978 335.416 483.849C335.911 483.719 336.434 483.654 336.986 483.654C337.538 483.654 338.06 483.719 338.552 483.849C339.047 483.978 339.503 484.166 339.919 484.412C340.338 484.656 340.714 484.955 341.047 485.309C341.382 485.663 341.666 486.065 341.899 486.514C342.134 486.96 342.314 487.451 342.439 487.987C342.566 488.522 342.629 489.093 342.629 489.699C342.629 490.305 342.566 490.876 342.439 491.411C342.314 491.947 342.134 492.439 341.899 492.888C341.666 493.334 341.382 493.735 341.047 494.089C340.714 494.443 340.338 494.744 339.919 494.99C339.503 495.233 339.047 495.42 338.552 495.55C338.06 495.679 337.538 495.744 336.986 495.744C336.434 495.744 335.911 495.679 335.416 495.55C334.923 495.42 334.469 495.233 334.052 494.99C333.636 494.744 333.26 494.443 332.924 494.089C332.589 493.735 332.305 493.334 332.072 492.888C331.84 492.439 331.66 491.947 331.533 491.411C331.408 490.876 331.346 490.305 331.346 489.699ZM333.927 489.699C333.927 490.318 333.994 490.868 334.129 491.346C334.267 491.825 334.466 492.228 334.726 492.555C334.985 492.88 335.305 493.126 335.683 493.294C336.065 493.462 336.499 493.545 336.986 493.545C337.473 493.545 337.905 493.462 338.284 493.294C338.665 493.126 338.986 492.88 339.246 492.555C339.508 492.228 339.707 491.825 339.842 491.346C339.98 490.868 340.049 490.318 340.049 489.699C340.049 489.08 339.98 488.531 339.842 488.052C339.707 487.573 339.508 487.171 339.246 486.847C338.986 486.52 338.665 486.272 338.284 486.104C337.905 485.937 337.473 485.853 336.986 485.853C336.499 485.853 336.065 485.937 335.683 486.104C335.305 486.272 334.985 486.52 334.726 486.847C334.466 487.171 334.267 487.573 334.129 488.052C333.994 488.531 333.927 489.08 333.927 489.699ZM343.502 489.699C343.502 489.09 343.564 488.52 343.689 487.987C343.816 487.451 343.996 486.96 344.228 486.514C344.461 486.065 344.745 485.663 345.08 485.309C345.416 484.955 345.792 484.656 346.208 484.412C346.625 484.166 347.079 483.978 347.572 483.849C348.066 483.719 348.59 483.654 349.142 483.654C349.693 483.654 350.215 483.719 350.708 483.849C351.203 483.978 351.659 484.166 352.075 484.412C352.494 484.656 352.87 484.955 353.203 485.309C353.538 485.663 353.822 486.065 354.055 486.514C354.29 486.96 354.47 487.451 354.595 487.987C354.722 488.522 354.785 489.093 354.785 489.699C354.785 490.305 354.722 490.876 354.595 491.411C354.47 491.947 354.29 492.439 354.055 492.888C353.822 493.334 353.538 493.735 353.203 494.089C352.87 494.443 352.494 494.744 352.075 494.99C351.659 495.233 351.203 495.42 350.708 495.55C350.215 495.679 349.693 495.744 349.142 495.744C348.59 495.744 348.066 495.679 347.572 495.55C347.079 495.42 346.625 495.233 346.208 494.99C345.792 494.744 345.416 494.443 345.08 494.089C344.745 493.735 344.461 493.334 344.228 492.888C343.996 492.439 343.816 491.947 343.689 491.411C343.564 490.876 343.502 490.305 343.502 489.699ZM346.082 489.699C346.082 490.318 346.15 490.868 346.285 491.346C346.423 491.825 346.622 492.228 346.882 492.555C347.141 492.88 347.461 493.126 347.839 493.294C348.221 493.462 348.655 493.545 349.142 493.545C349.629 493.545 350.061 493.462 350.44 493.294C350.821 493.126 351.142 492.88 351.402 492.555C351.664 492.228 351.863 491.825 351.998 491.346C352.136 490.868 352.205 490.318 352.205 489.699C352.205 489.08 352.136 488.531 351.998 488.052C351.863 487.573 351.664 487.171 351.402 486.847C351.142 486.52 350.821 486.272 350.44 486.104C350.061 485.937 349.629 485.853 349.142 485.853C348.655 485.853 348.221 485.937 347.839 486.104C347.461 486.272 347.141 486.52 346.882 486.847C346.622 487.171 346.423 487.573 346.285 488.052C346.15 488.531 346.082 489.08 346.082 489.699ZM358.344 483.897V493.318H363.618V495.501H355.78V483.897H358.344ZM374.027 483.897C374.625 483.897 375.167 483.966 375.654 484.104C376.141 484.239 376.556 484.434 376.899 484.688C377.246 484.943 377.512 485.251 377.699 485.613C377.885 485.976 377.979 486.384 377.979 486.839C377.979 487.201 377.919 487.537 377.8 487.845C377.681 488.151 377.515 488.42 377.301 488.652C377.09 488.882 376.839 489.07 376.546 489.216C376.254 489.362 375.935 489.456 375.589 489.496C376.008 489.534 376.394 489.631 376.745 489.788C377.097 489.945 377.4 490.149 377.654 490.401C377.911 490.653 378.111 490.946 378.255 491.281C378.398 491.614 378.47 491.979 378.47 492.377C378.47 492.856 378.364 493.287 378.153 493.671C377.945 494.055 377.651 494.384 377.273 494.657C376.894 494.928 376.441 495.136 375.914 495.282C375.386 495.428 374.805 495.501 374.169 495.501H368.221V483.897H374.027ZM373.763 488.721C374.015 488.721 374.243 488.689 374.449 488.624C374.657 488.559 374.834 488.464 374.98 488.34C375.126 488.215 375.239 488.065 375.317 487.89C375.398 487.711 375.439 487.511 375.439 487.289C375.439 487.073 375.4 486.882 375.321 486.717C375.245 486.549 375.136 486.409 374.993 486.295C374.849 486.181 374.673 486.096 374.465 486.039C374.257 485.98 374.021 485.95 373.759 485.95H370.785V488.721H373.763ZM373.986 493.448C374.627 493.448 375.107 493.333 375.427 493.103C375.746 492.871 375.905 492.509 375.905 492.02C375.905 491.533 375.746 491.175 375.427 490.945C375.107 490.712 374.629 490.596 373.99 490.596H370.785V493.448H373.986ZM378.956 489.699C378.956 489.09 379.018 488.52 379.142 487.987C379.269 487.451 379.449 486.96 379.682 486.514C379.914 486.065 380.198 485.663 380.534 485.309C380.869 484.955 381.245 484.656 381.662 484.412C382.078 484.166 382.533 483.978 383.025 483.849C383.52 483.719 384.043 483.654 384.595 483.654C385.147 483.654 385.669 483.719 386.161 483.849C386.656 483.978 387.112 484.166 387.529 484.412C387.948 484.656 388.324 484.955 388.657 485.309C388.992 485.663 389.276 486.065 389.509 486.514C389.744 486.96 389.924 487.451 390.048 487.987C390.175 488.522 390.239 489.093 390.239 489.699C390.239 490.305 390.175 490.876 390.048 491.411C389.924 491.947 389.744 492.439 389.509 492.888C389.276 493.334 388.992 493.735 388.657 494.089C388.324 494.443 387.948 494.744 387.529 494.99C387.112 495.233 386.656 495.42 386.161 495.55C385.669 495.679 385.147 495.744 384.595 495.744C384.043 495.744 383.52 495.679 383.025 495.55C382.533 495.42 382.078 495.233 381.662 494.99C381.245 494.744 380.869 494.443 380.534 494.089C380.198 493.735 379.914 493.334 379.682 492.888C379.449 492.439 379.269 491.947 379.142 491.411C379.018 490.876 378.956 490.305 378.956 489.699ZM381.536 489.699C381.536 490.318 381.604 490.868 381.739 491.346C381.877 491.825 382.076 492.228 382.335 492.555C382.595 492.88 382.914 493.126 383.293 493.294C383.674 493.462 384.108 493.545 384.595 493.545C385.082 493.545 385.515 493.462 385.894 493.294C386.275 493.126 386.595 492.88 386.855 492.555C387.117 492.228 387.316 491.825 387.452 491.346C387.589 490.868 387.658 490.318 387.658 489.699C387.658 489.08 387.589 488.531 387.452 488.052C387.316 487.573 387.117 487.171 386.855 486.847C386.595 486.52 386.275 486.272 385.894 486.104C385.515 485.937 385.082 485.853 384.595 485.853C384.108 485.853 383.674 485.937 383.293 486.104C382.914 486.272 382.595 486.52 382.335 486.847C382.076 487.171 381.877 487.573 381.739 488.052C381.604 488.531 381.536 489.08 381.536 489.699ZM393.692 489.699C393.692 490.324 393.758 490.878 393.891 491.363C394.023 491.847 394.217 492.254 394.471 492.584C394.728 492.914 395.043 493.164 395.416 493.334C395.79 493.505 396.218 493.59 396.702 493.59C397.133 493.59 397.532 493.529 397.899 493.407C398.27 493.283 398.592 493.109 398.865 492.884C399.141 492.66 399.361 492.39 399.526 492.077C399.691 491.763 399.786 491.414 399.81 491.03H396.577V489.293H402.249V495.501H399.847V492.616C399.693 493.095 399.486 493.528 399.226 493.915C398.969 494.301 398.668 494.63 398.321 494.901C397.978 495.171 397.595 495.379 397.173 495.525C396.754 495.671 396.304 495.744 395.822 495.744C395.368 495.744 394.935 495.678 394.524 495.546C394.115 495.413 393.737 495.224 393.388 494.978C393.039 494.729 392.724 494.426 392.442 494.069C392.164 493.712 391.926 493.31 391.728 492.864C391.531 492.415 391.378 491.925 391.27 491.395C391.164 490.862 391.112 490.297 391.112 489.699C391.112 489.09 391.174 488.52 391.298 487.987C391.425 487.451 391.605 486.96 391.838 486.514C392.07 486.065 392.353 485.663 392.686 485.309C393.021 484.955 393.397 484.656 393.814 484.412C394.233 484.166 394.689 483.978 395.181 483.849C395.673 483.719 396.195 483.654 396.747 483.654C397.204 483.654 397.642 483.7 398.062 483.792C398.484 483.884 398.88 484.018 399.25 484.193C399.624 484.369 399.967 484.586 400.281 484.843C400.597 485.097 400.879 485.388 401.125 485.715C401.374 486.042 401.583 486.405 401.754 486.802C401.924 487.197 402.05 487.622 402.131 488.076H399.583C399.499 487.711 399.371 487.391 399.198 487.115C399.027 486.836 398.82 486.603 398.577 486.417C398.333 486.23 398.058 486.089 397.749 485.995C397.444 485.9 397.111 485.853 396.751 485.853C396.264 485.853 395.83 485.937 395.449 486.104C395.07 486.272 394.751 486.52 394.491 486.847C394.232 487.171 394.033 487.573 393.895 488.052C393.76 488.531 393.692 489.08 393.692 489.699ZM403.252 489.699C403.252 489.09 403.314 488.52 403.438 487.987C403.565 487.451 403.745 486.96 403.978 486.514C404.21 486.065 404.495 485.663 404.83 485.309C405.165 484.955 405.541 484.656 405.958 484.412C406.374 484.166 406.829 483.978 407.321 483.849C407.816 483.719 408.339 483.654 408.891 483.654C409.443 483.654 409.965 483.719 410.457 483.849C410.952 483.978 411.408 484.166 411.825 484.412C412.244 484.656 412.62 484.955 412.953 485.309C413.288 485.663 413.572 486.065 413.805 486.514C414.04 486.96 414.22 487.451 414.344 487.987C414.471 488.522 414.535 489.093 414.535 489.699C414.535 490.305 414.471 490.876 414.344 491.411C414.22 491.947 414.04 492.439 413.805 492.888C413.572 493.334 413.288 493.735 412.953 494.089C412.62 494.443 412.244 494.744 411.825 494.99C411.408 495.233 410.952 495.42 410.457 495.55C409.965 495.679 409.443 495.744 408.891 495.744C408.339 495.744 407.816 495.679 407.321 495.55C406.829 495.42 406.374 495.233 405.958 494.99C405.541 494.744 405.165 494.443 404.83 494.089C404.495 493.735 404.21 493.334 403.978 492.888C403.745 492.439 403.565 491.947 403.438 491.411C403.314 490.876 403.252 490.305 403.252 489.699ZM405.832 489.699C405.832 490.318 405.9 490.868 406.035 491.346C406.173 491.825 406.372 492.228 406.631 492.555C406.891 492.88 407.21 493.126 407.589 493.294C407.97 493.462 408.404 493.545 408.891 493.545C409.378 493.545 409.811 493.462 410.19 493.294C410.571 493.126 410.891 492.88 411.151 492.555C411.413 492.228 411.612 491.825 411.748 491.346C411.885 490.868 411.954 490.318 411.954 489.699C411.954 489.08 411.885 488.531 411.748 488.052C411.612 487.573 411.413 487.171 411.151 486.847C410.891 486.52 410.571 486.272 410.19 486.104C409.811 485.937 409.378 485.853 408.891 485.853C408.404 485.853 407.97 485.937 407.589 486.104C407.21 486.272 406.891 486.52 406.631 486.847C406.372 487.171 406.173 487.573 406.035 488.052C405.9 488.531 405.832 489.08 405.832 489.699ZM415.529 495.501V483.893H421.27C421.922 483.893 422.506 483.976 423.023 484.141C423.542 484.306 423.982 484.541 424.342 484.847C424.704 485.15 424.981 485.517 425.173 485.95C425.365 486.383 425.461 486.867 425.461 487.403C425.461 487.871 425.386 488.297 425.234 488.681C425.083 489.062 424.866 489.391 424.585 489.667C424.307 489.94 423.968 490.155 423.571 490.312C423.176 490.466 422.734 490.551 422.244 490.567C422.707 490.6 423.114 490.77 423.465 491.079C423.82 491.384 424.124 491.822 424.378 492.393L425.774 495.501H422.93L421.522 492.401C421.419 492.171 421.315 491.982 421.209 491.833C421.104 491.682 420.985 491.561 420.852 491.472C420.72 491.383 420.567 491.321 420.394 491.285C420.224 491.25 420.018 491.233 419.777 491.233H418.093V495.501H415.529ZM420.974 489.164C421.277 489.164 421.548 489.128 421.786 489.058C422.024 488.985 422.225 488.881 422.39 488.746C422.555 488.608 422.681 488.44 422.767 488.243C422.854 488.042 422.897 487.815 422.897 487.561C422.897 487.061 422.731 486.678 422.398 486.413C422.066 486.145 421.589 486.011 420.97 486.011H418.093V489.164H420.974Z" fill="white"/>
<path d="M225.721 153.439L239.915 171.355C252.391 187.102 273.882 192.518 292.331 184.565L251.493 133.02L225.721 153.439Z" fill="#224499"/>
<path d="M263.288 148.45L252.056 133.452C239.781 118.528 219.058 113.626 201.396 121.466L199.726 122.208L241.559 172.928L263.288 148.45Z" fill="#224499"/>
<path d="M336.59 153.44L322.396 171.356C309.92 187.104 288.429 192.52 269.98 184.567L310.817 133.022L336.59 153.44Z" fill="#224499"/>
<path d="M299.021 148.45L310.253 133.453C322.528 118.529 343.251 113.626 360.912 121.467L362.583 122.208L320.75 172.929L299.021 148.45Z" fill="#224499"/>
<path d="M369.945 184.017L347.271 181.128C327.342 178.589 308.188 189.738 300.555 208.322L365.79 216.634L369.945 184.017Z" fill="#224499"/>
<path d="M346.569 213.844L365.085 216.717C384.295 218.808 402.541 207.827 409.689 189.874L410.365 188.176L344.995 181.151L346.569 213.844Z" fill="#224499"/>
<path d="M290.668 261.519L288.294 238.785C286.207 218.803 297.789 199.907 316.541 192.698L323.371 258.103L290.668 261.519Z" fill="#224499"/>
<path d="M321.015 238.819L323.468 257.396C325.122 276.648 313.731 294.64 295.621 301.38L293.908 302.017L288.366 236.505L321.015 238.819Z" fill="#224499"/>
<path d="M194.121 185.922L216.795 183.033C236.725 180.494 255.878 191.644 263.511 210.228L198.277 218.539L194.121 185.922Z" fill="#224499"/>
<path d="M217.499 215.749L198.984 218.622C179.773 220.713 161.528 209.732 154.38 191.779L153.703 190.081L219.073 183.056L217.499 215.749Z" fill="#224499"/>
<path d="M273.396 263.418L275.771 240.684C277.857 220.702 266.276 201.806 247.524 194.597L240.694 260.003L273.396 263.418Z" fill="#224499"/>
<path d="M243.045 240.721L240.593 259.297C238.938 278.55 250.329 296.542 268.44 303.281L270.153 303.919L275.694 238.407L243.045 240.721Z" fill="#224499"/>
<circle cx="345.839" cy="236.368" r="12.4288" fill="#EBBA38"/>
<circle cx="279.251" cy="135.541" r="12.4288" fill="#EBBA38"/>
<circle cx="222.179" cy="236.368" r="12.4288" fill="#EBBA38"/>
<g clip-path="url(#clip0_214_1883)">
<path d="M281.703 0.667725L212.086 26.7749L281.703 61.5835L314.861 45.0045L283.755 35.4942C283.115 35.8014 282.414 35.9616 281.703 35.9632C280.438 35.9632 279.225 35.4606 278.33 34.5661C277.436 33.6715 276.933 32.4582 276.933 31.1931C276.933 29.928 277.436 28.7147 278.33 27.8202C279.225 26.9256 280.438 26.4231 281.703 26.4231L280.914 28.9876L286.441 30.6878L286.443 30.7045L294.598 33.1983L341.031 47.4844V51.1054C340.389 51.5424 339.863 52.1295 339.499 52.8158C339.135 53.5022 338.945 54.267 338.944 55.0437C338.945 55.8383 339.144 56.62 339.524 57.318C339.903 58.016 340.452 58.608 341.118 59.0404C338.947 67.2464 338.944 85.8649 338.944 93.2039C343.714 96.303 343.714 96.4162 348.484 93.2039C348.484 85.8658 348.482 67.2509 346.311 59.0431C346.978 58.6103 347.526 58.0178 347.905 57.3192C348.285 56.6207 348.484 55.8384 348.484 55.0434C348.484 54.2658 348.294 53.5 347.93 52.8127C347.566 52.1254 347.04 51.5375 346.397 51.1001V43.5216L328.711 38.0799L351.32 26.7749L281.703 0.667725ZM241.045 48.1865L237.133 71.6611C244.936 72.6816 254.271 77.2173 262.852 82.5807C267.733 85.6311 272.304 88.9794 276.017 92.2281C278.286 94.2137 280.184 96.1187 281.703 97.993C283.223 96.1184 285.12 94.2137 287.39 92.2281C291.102 88.9794 295.673 85.6311 300.554 82.5807C309.135 77.2173 318.47 72.6816 326.273 71.6611L322.36 48.1865H320.497L281.703 67.5836L242.909 48.1865H241.045Z" fill="#2D3F70"/>
</g>
<path d="M216.368 313.389C216.693 312.361 218.148 312.361 218.474 313.389L221.628 323.356C221.737 323.699 222.005 323.967 222.348 324.076L232.314 327.23C233.342 327.556 233.342 329.01 232.314 329.336L222.348 332.49C222.005 332.599 221.737 332.867 221.628 333.21L218.474 343.176C218.148 344.204 216.693 344.204 216.368 343.176L213.214 333.21C213.105 332.867 212.837 332.599 212.494 332.49L202.527 329.336C201.499 329.01 201.499 327.556 202.527 327.23L212.494 324.076C212.837 323.967 213.105 323.699 213.214 323.356L216.368 313.389Z" fill="#224499"/>
<path d="M237.136 315.399H247.866C248.722 315.399 249.528 315.483 250.283 315.652C251.044 315.816 251.744 316.054 252.383 316.366C253.028 316.677 253.606 317.058 254.119 317.507C254.631 317.95 255.065 318.452 255.419 319.012C255.778 319.572 256.053 320.185 256.243 320.851C256.433 321.511 256.528 322.214 256.528 322.959C256.528 323.704 256.433 324.409 256.243 325.075C256.053 325.735 255.778 326.348 255.419 326.913C255.059 327.473 254.623 327.978 254.111 328.427C253.599 328.876 253.02 329.259 252.375 329.576C251.736 329.888 251.036 330.128 250.275 330.297C249.52 330.461 248.717 330.543 247.866 330.543H242.145V338.063H237.136V315.399ZM247.597 326.406C248.21 326.406 248.757 326.327 249.237 326.168C249.723 326.01 250.135 325.783 250.474 325.487C250.812 325.191 251.071 324.832 251.25 324.409C251.43 323.981 251.52 323.498 251.52 322.959C251.52 322.425 251.43 321.947 251.25 321.524C251.076 321.102 250.82 320.743 250.481 320.447C250.149 320.151 249.742 319.926 249.261 319.773C248.78 319.615 248.239 319.535 247.637 319.535H242.145V326.406H247.597ZM263.226 338.063H258.217V315.399H263.226V338.063ZM265.192 326.731C265.192 325.542 265.308 324.428 265.541 323.387C265.773 322.341 266.106 321.382 266.539 320.51C266.973 319.633 267.498 318.849 268.116 318.157C268.74 317.464 269.437 316.881 270.208 316.405C270.985 315.924 271.83 315.557 272.744 315.304C273.658 315.05 274.628 314.923 275.653 314.923C276.678 314.923 277.647 315.05 278.561 315.304C279.475 315.557 280.318 315.924 281.089 316.405C281.866 316.881 282.563 317.464 283.181 318.157C283.804 318.849 284.333 319.633 284.766 320.51C285.199 321.382 285.532 322.341 285.764 323.387C285.997 324.433 286.113 325.548 286.113 326.731C286.113 327.914 285.997 329.029 285.764 330.075C285.532 331.121 285.199 332.083 284.766 332.96C284.333 333.831 283.804 334.613 283.181 335.305C282.563 335.998 281.866 336.584 281.089 337.065C280.318 337.54 279.475 337.905 278.561 338.158C277.647 338.412 276.678 338.539 275.653 338.539C274.628 338.539 273.658 338.412 272.744 338.158C271.83 337.905 270.985 337.54 270.208 337.065C269.437 336.584 268.74 335.998 268.116 335.305C267.498 334.613 266.973 333.831 266.539 332.96C266.106 332.083 265.773 331.121 265.541 330.075C265.308 329.029 265.192 327.914 265.192 326.731ZM270.232 326.731C270.232 327.941 270.351 329.013 270.589 329.948C270.832 330.884 271.183 331.671 271.643 332.31C272.108 332.944 272.676 333.425 273.347 333.752C274.023 334.08 274.791 334.244 275.653 334.244C276.514 334.244 277.28 334.08 277.951 333.752C278.627 333.425 279.195 332.944 279.655 332.31C280.119 331.671 280.471 330.884 280.709 329.948C280.952 329.013 281.073 327.941 281.073 326.731C281.073 325.521 280.952 324.449 280.709 323.514C280.471 322.578 280.119 321.794 279.655 321.16C279.195 320.521 278.627 320.037 277.951 319.71C277.28 319.382 276.514 319.218 275.653 319.218C274.791 319.218 274.023 319.382 273.347 319.71C272.676 320.037 272.108 320.521 271.643 321.16C271.183 321.794 270.832 322.578 270.589 323.514C270.351 324.449 270.232 325.521 270.232 326.731ZM308.813 338.063H301.705L292.861 319.876V338.063H288.058V315.399H295.634L304.011 332.508V315.399H308.813V338.063ZM320.395 314.931C321.848 314.931 323.156 315.106 324.318 315.454C325.485 315.803 326.476 316.305 327.29 316.96C328.109 317.615 328.737 318.415 329.176 319.361C329.614 320.301 329.833 321.363 329.833 322.547H325.031C325.031 322.003 324.918 321.511 324.69 321.073C324.468 320.634 324.151 320.262 323.739 319.955C323.327 319.649 322.833 319.414 322.257 319.25C321.682 319.086 321.04 319.004 320.332 319.004C319.941 319.004 319.555 319.031 319.175 319.084C318.794 319.137 318.435 319.216 318.097 319.321C317.759 319.427 317.447 319.559 317.162 319.718C316.877 319.876 316.628 320.061 316.417 320.272C316.211 320.484 316.05 320.721 315.934 320.986C315.817 321.25 315.759 321.54 315.759 321.857C315.759 322.306 315.868 322.674 316.084 322.959C316.306 323.239 316.631 323.469 317.059 323.648C317.492 323.828 318.026 323.976 318.66 324.092C319.294 324.208 320.025 324.327 320.855 324.449L321.782 324.583C322.257 324.652 322.746 324.729 323.248 324.813C323.75 324.892 324.252 324.99 324.754 325.106C325.256 325.223 325.747 325.363 326.228 325.526C326.714 325.69 327.173 325.888 327.607 326.121C328.04 326.353 328.439 326.628 328.803 326.945C329.168 327.257 329.482 327.621 329.746 328.039C330.016 328.456 330.224 328.931 330.372 329.465C330.52 329.999 330.594 330.601 330.594 331.272C330.594 332.461 330.356 333.509 329.881 334.418C329.411 335.321 328.74 336.079 327.868 336.692C327.002 337.3 325.953 337.759 324.722 338.071C323.491 338.383 322.117 338.539 320.601 338.539C318.969 338.539 317.521 338.362 316.259 338.008C314.996 337.654 313.931 337.141 313.065 336.47C312.204 335.799 311.549 334.981 311.1 334.014C310.651 333.042 310.426 331.94 310.426 330.709H315.228C315.228 331.296 315.35 331.821 315.593 332.286C315.841 332.751 316.195 333.145 316.655 333.467C317.12 333.789 317.682 334.038 318.343 334.212C319.003 334.381 319.745 334.465 320.57 334.465C321.272 334.465 321.93 334.402 322.543 334.275C323.161 334.148 323.697 333.956 324.151 333.697C324.611 333.438 324.973 333.116 325.237 332.73C325.501 332.344 325.633 331.893 325.633 331.375C325.633 330.878 325.522 330.479 325.301 330.178C325.079 329.877 324.754 329.634 324.326 329.449C323.903 329.264 323.385 329.119 322.773 329.013C322.165 328.902 321.473 328.791 320.696 328.68L319.5 328.506C318.876 328.416 318.229 328.319 317.558 328.213C316.887 328.102 316.229 327.954 315.585 327.769C314.94 327.584 314.328 327.349 313.746 327.064C313.165 326.779 312.655 326.414 312.217 325.97C311.778 325.526 311.43 324.993 311.171 324.369C310.917 323.746 310.791 323.004 310.791 322.143C310.791 321.355 310.901 320.632 311.123 319.971C311.345 319.311 311.66 318.714 312.066 318.18C312.478 317.647 312.972 317.179 313.548 316.778C314.129 316.371 314.777 316.03 315.49 315.755C316.203 315.481 316.972 315.275 317.796 315.137C318.625 315 319.492 314.931 320.395 314.931Z" fill="#224499"/>
<path d="M348.677 313.389C349.002 312.361 350.457 312.361 350.782 313.389L353.937 323.356C354.045 323.699 354.314 323.967 354.656 324.076L364.623 327.23C365.651 327.556 365.651 329.01 364.623 329.336L354.656 332.49C354.314 332.599 354.045 332.867 353.937 333.21L350.782 343.176C350.457 344.204 349.002 344.204 348.677 343.176L345.522 333.21C345.414 332.867 345.145 332.599 344.803 332.49L334.836 329.336C333.808 329.01 333.808 327.556 334.836 327.23L344.803 324.076C345.145 323.967 345.414 323.699 345.522 323.356L348.677 313.389Z" fill="#224499"/>
<defs>
<clipPath id="clip0_214_1883">
<rect width="152.642" height="152.642" fill="white" transform="translate(205.303 0.667725)"/>
</clipPath>
</defs>
</svg>
